<svg width="14" height="14" viewBox="0 0 14 14" fill="none" xmlns="http://www.w3.org/2000/svg">
<g clip-path="url(#clip0_16_2141)">
<path d="M4.0833 13.9999C4.00653 14.0004 3.93042 13.9857 3.85935 13.9566C3.78828 13.9276 3.72364 13.8848 3.66913 13.8308C3.61446 13.7765 3.57106 13.712 3.54144 13.6409C3.51183 13.5699 3.49658 13.4936 3.49658 13.4166C3.49658 13.3396 3.51183 13.2634 3.54144 13.1923C3.57106 13.1212 3.61446 13.0567 3.66913 13.0024L8.43496 8.23661C8.76268 7.90849 8.94676 7.4637 8.94676 6.99994C8.94676 6.53619 8.76268 6.0914 8.43496 5.76328L3.66913 0.997445C3.55929 0.887602 3.49758 0.738621 3.49758 0.583279C3.49758 0.427936 3.55929 0.278956 3.66913 0.169112C3.77897 0.0592682 3.92796 -0.00244141 4.0833 -0.00244141C4.23864 -0.00244141 4.38762 0.0592682 4.49746 0.169112L9.2633 4.93495C9.53492 5.20588 9.75042 5.52774 9.89745 5.88208C10.0445 6.23643 10.1202 6.6163 10.1202 6.99994C10.1202 7.38359 10.0445 7.76346 9.89745 8.11781C9.75042 8.47215 9.53492 8.79401 9.2633 9.06495L4.49746 13.8308C4.44296 13.8848 4.37831 13.9276 4.30724 13.9566C4.23617 13.9857 4.16007 14.0004 4.0833 13.9999Z" fill="currentColor"/>
</g>
<defs>
<clipPath id="clip0_16_2141">
<rect width="14" height="14" fill="white"/>
</clipPath>
</defs>
</svg>
