<svg width="24" height="24" viewBox="0 0 24 24" fill="none" xmlns="http://www.w3.org/2000/svg">
<path d="M5.08317 2.98147C5.17549 2.98104 5.17549 2.98104 5.26968 2.9806C5.43916 2.97984 5.60863 2.97994 5.77811 2.9802C5.96144 2.98033 6.14476 2.97964 6.32808 2.97907C6.68674 2.97809 7.04539 2.97787 7.40405 2.97795C7.69579 2.97802 7.98754 2.97784 8.27928 2.97749C8.36349 2.97739 8.44771 2.97729 8.53192 2.97719C8.5948 2.97712 8.5948 2.97712 8.65896 2.97705C9.45095 2.97616 10.2429 2.97621 11.0349 2.97653C11.7583 2.97679 12.4816 2.97582 13.2049 2.97426C13.9488 2.97268 14.6927 2.97197 15.4366 2.97219C15.8538 2.97229 16.2709 2.97205 16.6881 2.97088C17.0433 2.96989 17.3985 2.96973 17.7538 2.97061C17.9347 2.97104 18.1156 2.9711 18.2966 2.97013C19.3982 2.96458 20.283 3.03497 21.1227 3.82467C21.8971 4.6066 22.0427 5.47319 22.046 6.5273C22.0462 6.5756 22.0462 6.5756 22.0465 6.62488C22.0491 7.57978 21.8421 8.39567 21.2015 9.12758C21.1407 9.18746 21.1407 9.18746 21.0469 9.23433C21.0468 9.30087 21.0468 9.30086 21.0466 9.36874C21.0438 10.4515 21.0403 11.5342 21.0359 12.6169C21.0338 13.1405 21.0319 13.6641 21.0307 14.1877C21.0296 14.6444 21.028 15.1012 21.0259 15.5579C21.0248 15.7994 21.0239 16.0409 21.0236 16.2824C21.0233 16.5105 21.0224 16.7385 21.021 16.9665C21.0206 17.0495 21.0204 17.1325 21.0205 17.2155C21.0212 18.2893 20.9012 19.354 20.1534 20.1884C19.7419 20.5706 19.2025 20.8021 18.6563 20.9062C18.6165 20.914 18.5766 20.9218 18.5356 20.9299C17.9719 21.0251 17.4082 21.0135 16.8381 21.0128C16.7213 21.013 16.6044 21.0133 16.4875 21.0136C16.2043 21.0141 15.9211 21.0142 15.6379 21.0141C15.4074 21.014 15.1768 21.0141 14.9463 21.0143C14.9133 21.0144 14.8804 21.0144 14.8464 21.0144C14.7794 21.0145 14.7125 21.0145 14.6455 21.0146C14.0189 21.0151 13.3922 21.015 12.7656 21.0147C12.1943 21.0145 11.6229 21.015 11.0516 21.0159C10.4629 21.0168 9.87424 21.0172 9.28557 21.017C8.95589 21.0169 8.62621 21.017 8.29653 21.0177C7.98622 21.0183 7.67592 21.0182 7.36561 21.0176C7.25238 21.0175 7.13914 21.0176 7.02591 21.018C5.8703 21.0217 4.71878 20.9663 3.81159 20.1533C3.04108 19.3254 2.98478 18.1837 2.98942 17.1155C2.98945 17.029 2.98943 16.9426 2.98938 16.8561C2.98936 16.6236 2.9899 16.3911 2.99056 16.1586C2.99115 15.9148 2.9912 15.671 2.99131 15.4272C2.9916 14.9666 2.99237 14.5059 2.99331 14.0453C2.99437 13.5204 2.99488 12.9955 2.99535 12.4707C2.99633 11.3919 2.99797 10.3131 3.00007 9.23433C2.97096 9.22066 2.94185 9.20698 2.91187 9.19289C2.45846 8.95404 2.20779 8.26885 2.05634 7.80666C1.7914 6.72422 1.8617 5.31006 2.43157 4.34787C2.56524 4.13985 2.72828 3.96697 2.90632 3.79683C2.93502 3.76722 2.96372 3.73762 2.99329 3.70711C3.55985 3.15867 4.31925 2.97811 5.08317 2.98147ZM4.18091 5.44313C3.9935 5.73869 4.01387 6.04597 4.01394 6.38351C4.01374 6.48259 4.01204 6.58158 4.01026 6.68065C4.00683 7.08491 4.02838 7.37302 4.30066 7.68856C4.33991 7.71992 4.33991 7.71992 4.37995 7.75191C4.40599 7.77354 4.43204 7.79518 4.45887 7.81746C4.64613 7.93971 4.81249 7.98043 5.03458 7.98077C5.11037 7.98122 5.11037 7.98122 5.1877 7.98168C5.24293 7.98154 5.29817 7.98139 5.35508 7.98124C5.41397 7.98146 5.47287 7.98167 5.53354 7.98189C5.6969 7.98246 5.86025 7.98245 6.02361 7.98234C6.19984 7.98232 6.37606 7.98284 6.55229 7.98328C6.89751 7.98406 7.24273 7.98432 7.58796 7.98437C7.86858 7.98441 8.1492 7.98461 8.42983 7.9849C9.22548 7.98573 10.0211 7.98616 10.8168 7.98609C10.8811 7.98609 10.8811 7.98609 10.9468 7.98608C11.0112 7.98607 11.0112 7.98607 11.0769 7.98607C11.7729 7.98603 12.4689 7.98693 13.1649 7.98825C13.8796 7.9896 14.5942 7.99024 15.3089 7.99016C15.7101 7.99013 16.1113 7.99039 16.5126 7.9914C16.8542 7.99225 17.1958 7.99246 17.5374 7.99182C17.7117 7.99151 17.8859 7.99151 18.0602 7.99232C18.2492 7.99319 18.4382 7.99261 18.6272 7.99189C18.7096 7.99261 18.7096 7.99261 18.7936 7.99335C19.1537 7.9903 19.4082 7.9414 19.6887 7.69936C19.7096 7.6732 19.7305 7.64703 19.752 7.62008C19.7737 7.59403 19.7953 7.56799 19.8176 7.54116C20.0089 7.24801 19.9863 6.93766 19.9862 6.60078C19.9864 6.5017 19.9881 6.40271 19.9899 6.30364C19.9933 5.89873 19.97 5.61377 19.7011 5.29573C19.6754 5.27483 19.6496 5.25392 19.6231 5.23238C19.5976 5.21075 19.5721 5.18912 19.5458 5.16683C19.2475 4.9817 18.9355 5.00215 18.5964 5.00305C18.5379 5.00284 18.4794 5.00262 18.4191 5.0024C18.257 5.00183 18.0949 5.00184 17.9328 5.00195C17.7579 5.00197 17.5829 5.00145 17.408 5.00101C17.0653 5.00023 16.7227 4.99997 16.3801 4.99992C16.1015 4.99988 15.823 4.99968 15.5444 4.99939C14.7545 4.99856 13.9646 4.99813 13.1746 4.9982C13.1107 4.99821 13.1107 4.99821 13.0456 4.99821C13.003 4.99821 12.9603 4.99822 12.9164 4.99822C12.2256 4.99826 11.5348 4.99736 10.844 4.99604C10.1345 4.99469 9.42492 4.99405 8.71539 4.99413C8.31712 4.99416 7.91887 4.9939 7.5206 4.99289C7.18151 4.99204 6.84243 4.99184 6.50334 4.99247C6.3304 4.99278 6.15748 4.99278 5.98455 4.99197C5.79688 4.9911 5.60924 4.99168 5.42158 4.9924C5.36719 4.99192 5.3128 4.99144 5.25676 4.99094C4.80528 4.99479 4.47231 5.08533 4.18091 5.44313ZM5.01569 10.0312C5.01472 11.232 5.01376 12.4327 5.01276 13.6699C5.01234 14.0481 5.01191 14.4264 5.01147 14.8161C5.01131 15.157 5.01131 15.157 5.01122 15.498C5.01117 15.6491 5.011 15.8002 5.01074 15.9513C5.01042 16.1448 5.01032 16.3382 5.01039 16.5317C5.01038 16.6023 5.01029 16.6728 5.0101 16.7434C4.97045 17.7645 4.97045 17.7645 5.29694 18.7031C5.93377 19.1276 6.93051 18.9911 7.66321 18.9904C7.76846 18.9905 7.87371 18.9905 7.97896 18.9906C8.26312 18.9909 8.54727 18.9908 8.83142 18.9906C9.12977 18.9905 9.42813 18.9906 9.72648 18.9907C10.2594 18.9908 10.7923 18.9906 11.3252 18.9904C11.8071 18.9902 12.2891 18.9902 12.771 18.9904C13.3324 18.9907 13.8937 18.9908 14.4551 18.9907C14.7517 18.9906 15.0482 18.9906 15.3447 18.9907C15.6236 18.9909 15.9025 18.9908 16.1813 18.9905C16.2832 18.9904 16.3852 18.9904 16.4871 18.9906C17.6411 19.0485 17.6411 19.0485 18.7032 18.7031C19.0852 18.1301 18.9915 17.3 18.9898 16.6405C18.9897 16.5668 18.9898 16.493 18.9898 16.4192C18.9898 16.2238 18.9895 16.0283 18.9892 15.8328C18.9889 15.6486 18.9889 15.4644 18.9889 15.2802C18.9886 14.7435 18.988 14.2067 18.9874 13.6699C18.9864 12.4691 18.9854 11.2684 18.9844 10.0312C14.3748 10.0312 9.76507 10.0312 5.01569 10.0312Z" fill="currentColor"/>
<path d="M8.94465 11.9872C9.02823 11.9865 9.02823 11.9865 9.1135 11.9858C9.20497 11.9857 9.20497 11.9857 9.29828 11.9857C9.36328 11.9853 9.42828 11.9849 9.49327 11.9845C9.66974 11.9835 9.84621 11.9831 10.0227 11.9828C10.133 11.9827 10.2434 11.9824 10.3537 11.982C10.7389 11.9809 11.1241 11.9803 11.5093 11.9801C11.8679 11.9799 12.2265 11.9785 12.5851 11.9766C12.8934 11.9749 13.2016 11.9742 13.5098 11.9742C13.6937 11.9741 13.8776 11.9737 14.0615 11.9724C14.2347 11.9712 14.4078 11.9711 14.581 11.9718C14.6744 11.972 14.7678 11.9709 14.8612 11.9698C15.25 11.973 15.4913 12.0322 15.774 12.3021C15.9792 12.527 16.0556 12.7652 16.0458 13.0683C15.9991 13.4028 15.8671 13.6575 15.6037 13.8677C15.4061 13.9894 15.2375 14.0275 15.0065 14.0282C14.924 14.0288 14.924 14.0288 14.8398 14.0294C14.7499 14.0294 14.7499 14.0294 14.6582 14.0293C14.5941 14.0296 14.5301 14.0299 14.466 14.0302C14.2922 14.0311 14.1185 14.0313 13.9447 14.0314C13.8361 14.0314 13.7274 14.0316 13.6187 14.0319C13.2393 14.0327 12.8599 14.0331 12.4804 14.033C12.1273 14.033 11.7741 14.034 11.421 14.0355C11.1173 14.0367 10.8137 14.0372 10.5101 14.0371C10.3289 14.0371 10.1478 14.0374 9.96663 14.0384C9.79614 14.0393 9.62568 14.0393 9.45519 14.0386C9.36323 14.0385 9.27127 14.0392 9.17932 14.04C8.77465 14.0372 8.5106 13.9913 8.21196 13.6993C8.02462 13.4209 7.91218 13.1386 7.9688 12.7969C8.06931 12.4457 8.2572 12.2313 8.56635 12.0442C8.69842 11.989 8.80149 11.9878 8.94465 11.9872Z" fill="currentColor"/>
</svg>
