<svg width="24" height="24" viewBox="0 0 24 24" fill="none" xmlns="http://www.w3.org/2000/svg">
<path d="M11.8667 1.95397C11.9875 1.95412 12.1081 1.95302 12.2289 1.95183C13.6911 1.94623 15.0503 2.39291 16.1103 3.42776C16.6347 3.9647 17.625 5.21415 17.625 6.00002C17.6535 5.99785 17.682 5.99567 17.7114 5.99343C18.6916 5.95307 19.5956 6.4189 20.3232 7.04006C21.0523 7.72865 21.5183 8.70332 21.5773 9.70525C21.5991 10.4734 21.4706 11.2314 21.3604 11.9891C21.3317 12.1877 21.3036 12.3863 21.2755 12.585C21.2282 12.9182 21.1803 13.2513 21.1322 13.5843C21.0768 13.9672 21.0222 14.3501 20.968 14.7332C20.9154 15.1046 20.8623 15.476 20.8091 15.8474C20.7866 16.0041 20.7643 16.1609 20.742 16.3176C20.7158 16.5027 20.6891 16.6877 20.6622 16.8727C20.6525 16.9399 20.6429 17.007 20.6334 17.0742C20.5825 17.4349 20.5198 17.7892 20.437 18.1438C20.4294 18.1763 20.4219 18.2088 20.414 18.2423C20.1116 19.4934 19.3139 20.5906 18.2241 21.2696C17.8315 21.5059 17.4344 21.7011 16.9951 21.835C16.9655 21.8441 16.936 21.8533 16.9055 21.8627C16.3196 22.0282 15.7149 22.0452 15.1106 22.0441C15.0353 22.0444 14.96 22.0446 14.8847 22.0449C14.6822 22.0455 14.4798 22.0455 14.2774 22.0454C14.1073 22.0454 13.9373 22.0456 13.7673 22.0458C13.3655 22.0463 12.9637 22.0464 12.562 22.0461C12.1499 22.0458 11.7379 22.0464 11.3258 22.0474C10.9699 22.0482 10.6139 22.0485 10.258 22.0483C10.0463 22.0482 9.83472 22.0483 9.6231 22.049C7.84225 22.0541 6.22105 21.8775 4.88671 20.5664C4.48814 20.1596 4.17128 19.7168 3.92284 19.2041C3.90871 19.1753 3.89459 19.1466 3.88003 19.1169C3.60744 18.5209 3.47985 17.8763 3.39004 17.2317C3.37943 17.1587 3.36877 17.0857 3.35807 17.0128C3.32955 16.8173 3.30176 16.6218 3.27415 16.4262C3.25085 16.2617 3.22718 16.0972 3.20351 15.9328C3.14759 15.5443 3.09225 15.1557 3.03731 14.767C2.981 14.3687 2.92379 13.9705 2.86611 13.5724C2.81626 13.2281 2.76693 12.8837 2.71801 12.5393C2.68895 12.3347 2.65971 12.1301 2.62999 11.9256C2.41065 10.4131 2.21568 8.93483 3.1745 7.6219C3.26862 7.49938 3.36751 7.38241 3.46874 7.26565C3.49793 7.2312 3.52711 7.19676 3.55718 7.16128C4.16045 6.50435 5.12414 6.03974 6.01189 5.99178C6.13336 5.99132 6.25373 5.99346 6.37499 6.00002C6.38772 5.95956 6.40044 5.9191 6.41356 5.87741C6.68829 5.08762 7.13391 4.28176 7.68749 3.65627C7.70981 3.63073 7.73213 3.60518 7.75512 3.57886C8.81384 2.38947 10.3168 1.95002 11.8667 1.95397ZM9.18749 5.06252C8.83308 5.4899 8.83308 5.4899 8.67186 6.00002C10.8684 6.00002 13.065 6.00002 15.3281 6.00002C15.0906 5.28752 14.5892 4.7046 13.9219 4.3594C13.4583 4.13683 13.0248 4.01699 12.5109 4.01552C12.4715 4.01521 12.4321 4.0149 12.3916 4.01458C12.3088 4.01411 12.226 4.01388 12.1432 4.0139C12.0188 4.0137 11.8945 4.01199 11.7702 4.01021C10.7417 4.00336 9.90216 4.30175 9.18749 5.06252ZM4.96874 8.6719C4.42677 9.3949 4.4432 10.0882 4.56335 10.9538C4.57278 11.0177 4.58223 11.0815 4.59168 11.1454C4.60158 11.2152 4.61144 11.285 4.62125 11.3548C4.64767 11.5417 4.67478 11.7284 4.70206 11.9152C4.73072 12.1121 4.75881 12.3091 4.787 12.5061C4.83436 12.8365 4.88219 13.1668 4.93029 13.4971C4.98566 13.8773 5.04029 14.2577 5.09451 14.6382C5.14702 15.0064 5.20008 15.3746 5.25339 15.7427C5.27592 15.8984 5.29826 16.0541 5.32043 16.2099C5.34661 16.3935 5.37328 16.5771 5.40031 16.7607C5.41007 16.8275 5.41968 16.8944 5.4291 16.9613C5.57065 17.9643 5.89439 18.7912 6.72069 19.4209C7.38103 19.8765 8.05003 19.9902 8.83809 19.9877C8.91462 19.988 8.99115 19.9883 9.06767 19.9887C9.27397 19.9895 9.48026 19.9895 9.68656 19.9892C9.85953 19.9891 10.0325 19.9893 10.2055 19.9896C10.6139 19.9903 11.0224 19.9902 11.4309 19.9897C11.8506 19.9891 12.2702 19.9898 12.6899 19.9911C13.0518 19.9921 13.4137 19.9924 13.7756 19.9921C13.991 19.992 14.2065 19.9921 14.4219 19.9929C14.6247 19.9936 14.8275 19.9934 15.0303 19.9926C15.1042 19.9924 15.1781 19.9925 15.2519 19.993C16.1534 19.9986 16.9489 19.7704 17.6197 19.1372C18.337 18.4282 18.4842 17.5652 18.6219 16.6025C18.6316 16.5358 18.6414 16.4691 18.6511 16.4024C18.6772 16.2234 18.703 16.0443 18.7286 15.8652C18.7448 15.7528 18.761 15.6404 18.7772 15.528C18.834 15.1344 18.8905 14.7408 18.9468 14.3472C18.999 13.9825 19.0517 13.618 19.1047 13.2535C19.1505 12.9385 19.1959 12.6234 19.2409 12.3084C19.2677 12.1211 19.2946 11.9338 19.322 11.7466C19.6053 10.2294 19.6053 10.2294 19.1367 8.82131C18.787 8.36663 18.329 8.10614 17.7656 8.01565C17.6038 8.0034 17.4428 8.00276 17.2806 8.00343C17.2335 8.00325 17.1864 8.00307 17.1379 8.00288C16.9811 8.0024 16.8242 8.00259 16.6674 8.00277C16.5545 8.00257 16.4417 8.00233 16.3289 8.00205C16.0548 8.00148 15.7806 8.00136 15.5065 8.00147C15.2836 8.00156 15.0606 8.00148 14.8377 8.00128C14.8059 8.00125 14.7741 8.00122 14.7413 8.00119C14.6767 8.00113 14.6121 8.00108 14.5475 8.00102C13.9424 8.00051 13.3372 8.00061 12.7321 8.0009C12.1792 8.00114 11.6264 8.00061 11.0736 7.99972C10.5051 7.99881 9.93654 7.99843 9.36801 7.9986C9.04918 7.99869 8.73036 7.99858 8.41153 7.99791C8.11165 7.99732 7.81179 7.99742 7.51191 7.99803C7.40207 7.99814 7.29223 7.99801 7.18239 7.99762C7.03202 7.99713 6.88167 7.99751 6.7313 7.99811C6.68823 7.99776 6.64515 7.99741 6.60076 7.99706C5.99136 8.00209 5.38691 8.21423 4.96874 8.6719Z" fill="currentColor"/>
<path d="M8.99323 12.9718C9.04823 12.9714 9.10322 12.971 9.15989 12.9706C9.24979 12.9706 9.24979 12.9706 9.3415 12.9707C9.40558 12.9704 9.46966 12.9701 9.53374 12.9698C9.7075 12.9689 9.88125 12.9687 10.055 12.9687C10.1637 12.9686 10.2723 12.9684 10.381 12.9681C10.7604 12.9673 11.1399 12.9669 11.5193 12.967C11.8725 12.967 12.2256 12.966 12.5788 12.9645C12.8824 12.9633 13.186 12.9628 13.4897 12.9629C13.6708 12.9629 13.8519 12.9626 14.0331 12.9616C14.2036 12.9607 14.3741 12.9607 14.5445 12.9614C14.6365 12.9616 14.7285 12.9608 14.8204 12.96C15.2251 12.9628 15.4891 13.0087 15.7878 13.3007C15.9751 13.5791 16.0875 13.8614 16.0309 14.2031C15.9304 14.5543 15.7425 14.7687 15.4334 14.9558C15.3013 15.011 15.1982 15.0122 15.0551 15.0128C14.9715 15.0135 14.9715 15.0135 14.8862 15.0142C14.7948 15.0143 14.7948 15.0143 14.7014 15.0143C14.6364 15.0147 14.5715 15.0151 14.5065 15.0155C14.33 15.0165 14.1535 15.0169 13.9771 15.0172C13.8667 15.0174 13.7564 15.0176 13.646 15.018C13.2608 15.0191 12.8756 15.0197 12.4904 15.0199C12.1318 15.0201 11.7732 15.0215 11.4146 15.0234C11.1064 15.0251 10.7982 15.0258 10.49 15.0258C10.306 15.0259 10.1221 15.0263 9.93818 15.0276C9.76504 15.0288 9.59192 15.0289 9.41877 15.0282C9.32536 15.0281 9.23195 15.0291 9.13854 15.0302C8.74973 15.027 8.5084 14.9678 8.22569 14.698C8.02052 14.473 7.94409 14.2348 7.95396 13.9317C8.00066 13.5972 8.13264 13.3425 8.39598 13.1323C8.59364 13.0106 8.7622 12.9726 8.99323 12.9718Z" fill="currentColor"/>
</svg>
