<svg width="24" height="24" viewBox="0 0 24 24" fill="none" xmlns="http://www.w3.org/2000/svg">
<path d="M5.1807 2.6129C5.27194 2.61263 5.27194 2.61263 5.36503 2.61236C5.53207 2.61188 5.6991 2.61197 5.86614 2.61218C6.047 2.61229 6.22786 2.61187 6.40872 2.61152C6.76237 2.61092 7.11602 2.61084 7.46967 2.61095C7.75736 2.61103 8.04506 2.61095 8.33275 2.61075C8.37381 2.61072 8.41487 2.61069 8.45717 2.61066C8.5406 2.61061 8.62403 2.61055 8.70746 2.61049C9.48868 2.60998 10.2699 2.61008 11.0511 2.61037C11.7644 2.61061 12.4777 2.61009 13.1909 2.60919C13.9248 2.60828 14.6587 2.6079 15.3927 2.60808C15.8041 2.60816 16.2155 2.60805 16.6269 2.60739C16.9772 2.60682 17.3275 2.60676 17.6778 2.60733C17.8562 2.6076 18.0346 2.60766 18.213 2.60709C19.8271 2.60232 21.205 2.86355 22.4052 4.02258C23.2239 4.87135 23.7259 5.99786 23.7257 7.18252C23.7258 7.22508 23.726 7.26764 23.7262 7.3115C23.7267 7.45361 23.7269 7.59573 23.7271 7.73785C23.7273 7.83997 23.7277 7.9421 23.728 8.04423C23.729 8.37928 23.7295 8.71432 23.7299 9.04937C23.7301 9.16502 23.7303 9.28066 23.7305 9.39631C23.7314 9.93992 23.7321 10.4835 23.7325 11.0272C23.7329 11.6531 23.7341 12.279 23.736 12.9049C23.7375 13.3897 23.7381 13.8745 23.7383 14.3592C23.7384 14.6483 23.7388 14.9373 23.74 15.2264C23.7411 15.4987 23.7413 15.7711 23.7408 16.0435C23.7408 16.1428 23.7411 16.2422 23.7417 16.3415C23.7508 17.8194 23.3024 19.042 22.2656 20.1095C21.3111 21.0051 20.0872 21.3826 18.8042 21.3817C18.7439 21.3818 18.6837 21.382 18.6216 21.3821C18.4551 21.3825 18.2886 21.3826 18.1221 21.3826C17.9422 21.3827 17.7624 21.3831 17.5825 21.3834C17.1895 21.384 16.7964 21.3843 16.4034 21.3845C16.1577 21.3846 15.912 21.3848 15.6663 21.385C14.9851 21.3856 14.304 21.3861 13.6228 21.3863C13.5575 21.3863 13.5575 21.3863 13.4908 21.3863C13.4472 21.3863 13.4035 21.3863 13.3585 21.3863C13.2701 21.3863 13.1816 21.3864 13.0932 21.3864C13.0273 21.3864 13.0273 21.3864 12.9602 21.3864C12.2499 21.3866 11.5397 21.3874 10.8294 21.3885C10.0991 21.3896 9.36884 21.3902 8.63853 21.3903C8.22894 21.3903 7.81935 21.3906 7.40976 21.3914C7.06084 21.3921 6.71192 21.3924 6.36299 21.392C6.18527 21.3918 6.00755 21.3918 5.82982 21.3925C4.38589 21.3976 3.04576 21.2401 1.92188 20.2501C1.88297 20.2179 1.84405 20.1857 1.80396 20.1525C0.953811 19.4289 0.452906 18.3887 0.281254 17.297C0.269449 17.1454 0.26835 16.9949 0.269033 16.8429C0.268854 16.7997 0.268675 16.7565 0.26849 16.712C0.26801 16.5685 0.268192 16.4251 0.268379 16.2817C0.268175 16.1783 0.267932 16.075 0.267653 15.9716C0.267027 15.6917 0.266998 15.4118 0.267117 15.1319C0.267167 14.8978 0.266938 14.6636 0.266714 14.4295C0.266164 13.8453 0.266204 13.2611 0.266505 12.6769C0.266747 12.1708 0.26622 11.6648 0.265329 11.1587C0.264418 10.6378 0.264047 10.1169 0.264209 9.59599C0.264294 9.30407 0.264173 9.01215 0.26352 8.72022C0.262928 8.44551 0.263024 8.1708 0.263633 7.89609C0.263743 7.79568 0.263617 7.69527 0.263228 7.59486C0.257989 6.13553 0.698359 4.94756 1.71991 3.90228C2.66542 3.00081 3.89547 2.60881 5.1807 2.6129ZM2.71125 5.33526C1.95278 6.23543 1.96875 7.11086 1.96875 8.29699C8.58938 8.29699 15.21 8.29699 22.0313 8.29699C22.0369 6.56083 22.0369 6.56083 21.1414 5.19354C20.4376 4.52278 19.6085 4.29731 18.6564 4.3004C18.5674 4.30013 18.5674 4.30013 18.4766 4.29986C18.3134 4.29938 18.1501 4.29948 17.9869 4.29968C17.8103 4.29979 17.6337 4.29937 17.4571 4.29902C17.1116 4.29842 16.7661 4.29834 16.4207 4.29845C16.1397 4.29853 15.8587 4.29845 15.5777 4.29825C15.5377 4.29822 15.4976 4.29819 15.4563 4.29816C15.3749 4.29811 15.2935 4.29805 15.2121 4.29799C14.4494 4.29748 13.6867 4.29758 12.9241 4.29787C12.2274 4.29811 11.5307 4.29759 10.834 4.29669C10.1175 4.29578 9.40102 4.2954 8.68454 4.29558C8.28274 4.29566 7.88094 4.29555 7.47913 4.29489C7.13705 4.29433 6.79498 4.29426 6.4529 4.29483C6.27861 4.2951 6.10432 4.29516 5.93003 4.29459C5.74051 4.29399 5.55101 4.29448 5.36149 4.29508C5.30721 4.29473 5.25293 4.29439 5.19701 4.29403C4.2289 4.30037 3.38283 4.63072 2.71125 5.33526ZM1.96875 9.98449C1.52035 14.1335 1.52035 14.1335 2.27344 17.9972C2.28936 18.0288 2.30529 18.0605 2.32169 18.0931C2.71146 18.8284 3.39861 19.338 4.18653 19.5851C4.56303 19.6935 4.93209 19.6945 5.32108 19.6942C5.40982 19.6944 5.40982 19.6944 5.50035 19.6946C5.66402 19.695 5.82769 19.6951 5.99136 19.6951C6.1681 19.6952 6.34484 19.6956 6.52158 19.6959C6.90783 19.6965 7.29407 19.6968 7.68032 19.697C7.92171 19.6971 8.16309 19.6973 8.40448 19.6975C9.0734 19.6981 9.74232 19.6986 10.4112 19.6988C10.4754 19.6988 10.4754 19.6988 10.5409 19.6988C10.6052 19.6988 10.6052 19.6988 10.6708 19.6988C10.7577 19.6988 10.8446 19.6989 10.9315 19.6989C10.9746 19.6989 11.0177 19.6989 11.0621 19.6989C11.76 19.6991 12.458 19.6999 13.1559 19.701C13.8732 19.7021 14.5905 19.7027 15.3078 19.7028C15.7103 19.7028 16.1127 19.7031 16.5151 19.7039C16.8579 19.7046 17.2007 19.7049 17.5435 19.7045C17.7181 19.7043 17.8928 19.7044 18.0675 19.705C18.2574 19.7057 18.4473 19.7053 18.6373 19.7048C18.7189 19.7054 18.7189 19.7054 18.8021 19.706C19.7352 19.7004 20.5194 19.3969 21.1992 18.7589C23.1843 16.6764 22.0313 11.2232 22.0313 9.98449C15.4106 9.98449 8.79 9.98449 1.96875 9.98449Z" fill="currentColor"/>
<path d="M10.0278 14.7112C10.0838 14.7108 10.1399 14.7103 10.1976 14.7099C10.258 14.7097 10.3184 14.7095 10.3806 14.7093C10.4115 14.7091 10.4424 14.709 10.4743 14.7089C10.6379 14.7082 10.8016 14.7077 10.9652 14.7075C11.1334 14.7073 11.3016 14.7062 11.4698 14.7048C11.5999 14.7039 11.73 14.7037 11.86 14.7036C11.9519 14.7034 12.0438 14.7025 12.1357 14.7017C12.4852 14.7025 12.8004 14.7058 13.0809 14.94C13.1022 14.9675 13.1235 14.9951 13.1455 15.0235C13.1677 15.051 13.1899 15.0786 13.2127 15.107C13.3571 15.3269 13.3425 15.5917 13.3125 15.8438C13.2239 16.0837 13.0891 16.2404 12.8636 16.3657C12.6035 16.4587 12.3173 16.434 12.0441 16.4328C11.9751 16.4331 11.906 16.4334 11.837 16.4337C11.6927 16.4342 11.5484 16.434 11.404 16.4333C11.2199 16.4325 11.0358 16.4336 10.8516 16.4353C10.7091 16.4363 10.5667 16.4362 10.4242 16.4358C10.3563 16.4358 10.2885 16.4361 10.2206 16.4368C9.58485 16.4423 9.58485 16.4423 9.30282 16.2393C9.1165 16.0558 9.03769 15.8444 9.02344 15.586C9.03738 15.3251 9.12052 15.1065 9.31329 14.9263C9.54803 14.7501 9.73474 14.7131 10.0278 14.7112Z" fill="currentColor"/>
<path d="M16.2622 14.7112C16.3182 14.7108 16.3742 14.7103 16.4319 14.7099C16.4923 14.7097 16.5527 14.7095 16.615 14.7093C16.6459 14.7091 16.6768 14.709 16.7086 14.7089C16.8723 14.7082 17.0359 14.7077 17.1995 14.7075C17.3678 14.7073 17.536 14.7062 17.7042 14.7048C17.8342 14.7039 17.9643 14.7037 18.0944 14.7036C18.1863 14.7034 18.2782 14.7025 18.3701 14.7017C18.7195 14.7025 19.0347 14.7058 19.3152 14.94C19.3365 14.9675 19.3579 14.9951 19.3799 15.0235C19.402 15.051 19.4242 15.0786 19.4471 15.107C19.5915 15.3269 19.5768 15.5917 19.5468 15.8438C19.4583 16.0835 19.3235 16.2405 19.0982 16.3658C18.8381 16.4583 18.5484 16.433 18.2752 16.4312C18.2059 16.4313 18.1366 16.4315 18.0674 16.4317C17.9226 16.432 17.7779 16.4316 17.6332 16.4307C17.4482 16.4297 17.2633 16.4303 17.0783 16.4314C16.9354 16.4321 16.7925 16.4319 16.6496 16.4314C16.5814 16.4313 16.5132 16.4314 16.4451 16.4319C16.3496 16.4323 16.2542 16.4315 16.1587 16.4306C16.0775 16.4303 16.0775 16.4303 15.9946 16.4301C15.6866 16.3815 15.5032 16.1777 15.3281 15.9375C15.2404 15.7352 15.2477 15.4848 15.3116 15.2756C15.4176 15.0361 15.5633 14.885 15.7968 14.7657C15.9534 14.7165 16.0986 14.7123 16.2622 14.7112Z" fill="currentColor"/>
</svg>
