<svg width="24" height="24" viewBox="0 0 24 24" fill="none" xmlns="http://www.w3.org/2000/svg">
<path d="M4.87493 2.3906C5.39621 2.76186 5.68068 3.27571 5.81243 3.8906C5.84525 4.09118 5.86942 4.2921 5.89153 4.49411C5.8976 4.54572 5.90367 4.59732 5.90993 4.65049C5.93479 4.86728 5.95655 5.07841 5.95305 5.29685C5.98997 5.2844 6.02689 5.27195 6.06493 5.25913C7.06163 4.93594 8.09503 4.9616 9.13159 4.96043C9.24687 4.96013 9.36215 4.95982 9.47743 4.95949C9.82061 4.9586 10.1638 4.9581 10.507 4.95768C10.6367 4.95751 10.7664 4.95732 10.896 4.95712C11.4693 4.95626 12.0425 4.95552 12.6157 4.95516C12.7553 4.95507 12.8949 4.95498 13.0344 4.95489C13.0691 4.95486 13.1038 4.95484 13.1395 4.95482C13.7019 4.95443 14.2642 4.95324 14.8265 4.95172C15.406 4.95017 15.9856 4.94933 16.5651 4.94918C16.8896 4.94907 17.2141 4.94867 17.5386 4.94747C17.8438 4.94634 18.1489 4.94618 18.4541 4.94666C18.5655 4.94668 18.677 4.94639 18.7885 4.94574C19.5709 4.94146 20.3481 4.94306 20.9999 5.43747C21.0393 5.46732 21.0787 5.49717 21.1193 5.52793C21.6321 5.95211 21.9381 6.51765 22.0312 7.17185C22.0389 7.28106 22.0436 7.39051 22.0458 7.49997C22.0476 7.55508 22.0493 7.61019 22.0511 7.66697C22.0222 8.21642 21.7714 8.71238 21.5156 9.18747C21.4839 9.24726 21.4524 9.30708 21.4209 9.36692C21.2152 9.7563 21.0044 10.143 20.7918 10.5286C20.5971 10.8831 20.4113 11.2419 20.2265 11.6015C19.9936 12.0547 19.756 12.5049 19.5101 12.9512C19.3782 13.1908 19.2494 13.4317 19.1234 13.6745C18.6419 14.6017 18.1269 15.4542 17.1093 15.8437C16.4807 16.0291 15.8396 16.0383 15.1896 16.038C15.1154 16.0382 15.0413 16.0383 14.9671 16.0385C14.767 16.0389 14.5669 16.039 14.3668 16.0391C14.2412 16.0391 14.1156 16.0392 13.99 16.0393C13.5502 16.0398 13.1105 16.0399 12.6707 16.0399C12.2635 16.0399 11.8563 16.0404 11.4491 16.0411C11.0975 16.0417 10.7458 16.042 10.3942 16.042C10.1851 16.0419 9.97599 16.0421 9.76689 16.0426C6.56935 16.0497 6.56935 16.0497 5.60186 15.1263C4.75386 14.2149 4.71055 12.8371 4.58013 11.666C4.56612 11.5429 4.55208 11.4197 4.53801 11.2966C4.50098 10.9719 4.46454 10.6471 4.42825 10.3223C4.40644 10.1272 4.3845 9.93198 4.36253 9.73681C4.24978 8.73456 4.13822 7.73217 4.02703 6.72974C3.99063 6.40156 3.95416 6.07338 3.91755 5.74522C3.90042 5.59168 3.88336 5.43814 3.86639 5.28459C3.8478 5.11642 3.82906 4.94827 3.81028 4.78013C3.80483 4.73043 3.79938 4.68073 3.79376 4.62953C3.78865 4.58403 3.78354 4.53854 3.77827 4.49167C3.77171 4.43259 3.77171 4.43259 3.76503 4.37232C3.75078 4.27164 3.72973 4.17614 3.70305 4.0781C3.61314 4.07547 3.61314 4.07547 3.52141 4.07279C3.44133 4.06971 3.36125 4.06659 3.28118 4.06345C3.24184 4.06239 3.2025 4.06134 3.16198 4.06025C2.79711 4.04469 2.4704 3.97045 2.20305 3.7031C2.00452 3.41603 1.93329 3.16064 1.96868 2.81247C2.03504 2.54752 2.14436 2.30852 2.37517 2.1489C3.09647 1.71735 4.21539 1.94956 4.87493 2.3906ZM6.56243 7.2656C6.19385 7.70033 6.30395 8.39892 6.34719 8.93408C6.37259 9.21519 6.40284 9.49576 6.43352 9.77634C6.44431 9.87772 6.45508 9.9791 6.46583 10.0805C6.49248 10.3306 6.51978 10.5806 6.54729 10.8306C6.56138 10.9592 6.57521 11.0878 6.58891 11.2164C6.672 12.5309 6.672 12.5309 7.12493 13.7343C7.56644 14.0627 8.29004 13.9823 8.81815 13.9809C8.89699 13.981 8.97582 13.9811 9.05466 13.9814C9.26694 13.9818 9.47922 13.9816 9.6915 13.9813C9.91452 13.9811 10.1375 13.9813 10.3605 13.9814C10.7347 13.9816 11.1089 13.9814 11.483 13.9809C11.9148 13.9804 12.3466 13.9806 12.7785 13.9811C13.1503 13.9815 13.5222 13.9816 13.8941 13.9814C14.1157 13.9812 14.3373 13.9812 14.5589 13.9815C14.7672 13.9818 14.9754 13.9816 15.1836 13.981C15.2598 13.9809 15.336 13.981 15.4121 13.9812C16.0507 14.0092 16.0507 14.0092 16.623 13.7812C16.9122 13.4159 17.1432 13.0369 17.3525 12.6211C17.4059 12.5165 17.4594 12.412 17.5131 12.3076C17.5397 12.2557 17.5663 12.2038 17.5937 12.1503C17.708 11.9303 17.8273 11.7131 17.9472 11.4961C18.1669 11.0972 18.3777 10.6941 18.5859 10.289C18.797 9.87821 19.011 9.46936 19.2333 9.06443C19.2558 9.0233 19.2783 8.98218 19.3015 8.93981C19.3904 8.77734 19.4794 8.61494 19.5695 8.45311C19.6368 8.33201 19.7032 8.21048 19.7695 8.08884C19.7897 8.05306 19.8099 8.01728 19.8307 7.98042C19.947 7.76499 19.9962 7.61038 19.9687 7.35935C19.8889 7.17981 19.8207 7.10423 19.6406 7.03122C19.5398 7.01734 19.5398 7.01734 19.432 7.01943C19.3903 7.01918 19.3486 7.01894 19.3055 7.01869C19.2599 7.01889 19.2142 7.0191 19.1672 7.01932C19.1185 7.01917 19.0698 7.01903 19.0197 7.01888C18.8561 7.0185 18.6925 7.0188 18.5289 7.01909C18.4117 7.01897 18.2946 7.0188 18.1775 7.0186C17.892 7.01821 17.6065 7.01827 17.321 7.01854C17.0886 7.01875 16.8563 7.01878 16.624 7.01868C16.5909 7.01866 16.5578 7.01865 16.5237 7.01863C16.4565 7.0186 16.3893 7.01857 16.3221 7.01854C15.6915 7.01828 15.0608 7.01858 14.4302 7.01909C13.8902 7.01951 13.3502 7.01943 12.8102 7.019C12.1827 7.0185 11.5551 7.0183 10.9275 7.01859C10.8604 7.01862 10.7933 7.01865 10.7261 7.01868C10.6766 7.0187 10.6766 7.0187 10.6261 7.01872C10.3946 7.0188 10.163 7.01867 9.93151 7.01845C9.61883 7.01815 9.30615 7.01837 8.99347 7.0189C8.8791 7.01903 8.76472 7.01899 8.65035 7.01879C7.57746 6.98096 7.57746 6.98096 6.56243 7.2656Z" fill="currentColor"/>
<path d="M18.0918 17.495C18.6291 17.9568 18.9344 18.5163 19.0316 19.2188C19.0869 19.9682 18.8815 20.6537 18.39 21.2256C17.9183 21.7149 17.332 21.9907 16.6525 22.0408C15.8732 22.0538 15.2109 21.8101 14.6477 21.2672C14.161 20.7367 13.9504 20.0855 13.9592 19.3724C14.0067 18.6353 14.3185 18.0279 14.8598 17.5313C15.8025 16.7886 17.1325 16.7708 18.0918 17.495ZM16.1254 19.1719C16.0163 19.3226 16.013 19.4582 16.0316 19.6406C16.0915 19.7723 16.14 19.8516 16.2572 19.9365C16.447 19.9962 16.5885 19.9926 16.7699 19.9102C16.8833 19.822 16.9264 19.7767 16.9691 19.6406C16.9922 19.4235 16.9631 19.298 16.8285 19.125C16.5949 18.9558 16.3434 19.0023 16.1254 19.1719Z" fill="currentColor"/>
<path d="M9.09176 17.495C9.62908 17.9568 9.93443 18.5163 10.0316 19.2188C10.0869 19.9682 9.88154 20.6537 9.39004 21.2256C8.91833 21.7149 8.33198 21.9907 7.65255 22.0408C6.87317 22.0538 6.21092 21.8101 5.64773 21.2672C5.16098 20.7367 4.95043 20.0855 4.95925 19.3724C5.00669 18.6353 5.3185 18.0279 5.85976 17.5313C6.80253 16.7886 8.13253 16.7708 9.09176 17.495ZM7.12539 19.1719C7.01625 19.3226 7.01302 19.4582 7.03164 19.6406C7.09149 19.7723 7.13997 19.8516 7.25722 19.9365C7.44698 19.9962 7.58851 19.9926 7.76992 19.9102C7.8833 19.822 7.92638 19.7767 7.96914 19.6406C7.99224 19.4235 7.96306 19.298 7.82851 19.125C7.59488 18.9558 7.34336 19.0023 7.12539 19.1719Z" fill="currentColor"/>
</svg>
