<svg width="20" height="20" viewBox="0 0 20 20" fill="none" xmlns="http://www.w3.org/2000/svg">
<path d="M9.99999 18.9582C5.05832 18.9582 1.04166 14.9415 1.04166 9.99984C1.04166 5.05817 5.05832 1.0415 9.99999 1.0415C14.9417 1.0415 18.9583 5.05817 18.9583 9.99984C18.9583 14.9415 14.9417 18.9582 9.99999 18.9582ZM9.99999 2.2915C5.74999 2.2915 2.29166 5.74984 2.29166 9.99984C2.29166 14.2498 5.74999 17.7082 9.99999 17.7082C14.25 17.7082 17.7083 14.2498 17.7083 9.99984C17.7083 5.74984 14.25 2.2915 9.99999 2.2915Z" fill="#D62A24"/>
<path d="M7.64165 12.9831C7.48332 12.9831 7.32499 12.9248 7.19999 12.7998C6.95832 12.5581 6.95832 12.1581 7.19999 11.9165L11.9167 7.1998C12.1583 6.95814 12.5583 6.95814 12.8 7.1998C13.0417 7.44147 13.0417 7.84147 12.8 8.08314L8.08332 12.7998C7.96665 12.9248 7.79999 12.9831 7.64165 12.9831Z" fill="#D62A24"/>
<path d="M12.3583 12.9831C12.2 12.9831 12.0417 12.9248 11.9167 12.7998L7.19999 8.08314C6.95832 7.84147 6.95832 7.44147 7.19999 7.1998C7.44165 6.95814 7.84165 6.95814 8.08332 7.1998L12.8 11.9165C13.0417 12.1581 13.0417 12.5581 12.8 12.7998C12.675 12.9248 12.5167 12.9831 12.3583 12.9831Z" fill="#D62A24"/>
</svg>
