<svg width="20" height="20" viewBox="0 0 20 20" fill="none" xmlns="http://www.w3.org/2000/svg">
<g clip-path="url(#clip0_10_2286)">
<path d="M14.0706 0.0280447C14.2595 0.13014 14.3855 0.265948 14.4531 0.468718C14.4564 0.566909 14.4576 0.66398 14.4569 0.762145C14.4568 0.804814 14.4568 0.804814 14.4568 0.848346C14.4565 0.93909 14.4561 1.02983 14.4556 1.12057C14.4554 1.18214 14.4552 1.24371 14.455 1.30528C14.4546 1.45612 14.4539 1.60695 14.4531 1.75778C14.4846 1.75961 14.5162 1.76144 14.5487 1.76332C14.8396 1.78257 15.1184 1.81866 15.4028 1.88229C15.4415 1.89088 15.4802 1.89948 15.5201 1.90833C16.6289 2.16467 17.6609 2.74806 18.2863 3.72342C18.5457 4.15478 18.7372 4.59905 18.8574 5.08786C18.8652 5.11896 18.8729 5.15005 18.8809 5.18209C19.0288 5.82537 19.0348 6.47659 19.0335 7.13299C19.0336 7.22355 19.0338 7.31411 19.034 7.40466C19.0343 7.64856 19.0342 7.89246 19.0339 8.13635C19.0337 8.39283 19.0339 8.64931 19.034 8.90579C19.0342 9.36382 19.0339 9.82184 19.0335 10.2799C19.0332 10.6937 19.0333 11.1075 19.0336 11.5213C19.034 12.0039 19.0342 12.4865 19.034 12.9691C19.0338 13.2238 19.0338 13.4785 19.0341 13.7332C19.0343 13.9728 19.0341 14.2123 19.0337 14.4519C19.0336 14.5393 19.0336 14.6267 19.0338 14.7141C19.0362 16.0484 18.8526 17.3442 17.9687 18.3984C17.9523 18.4205 17.9358 18.4426 17.9188 18.4654C17.467 19.0491 16.732 19.4046 16.0547 19.6484C16.0152 19.6628 15.9757 19.6772 15.935 19.692C15.2986 19.9059 14.5999 20.0062 13.9294 20.0055C13.8772 20.0056 13.8772 20.0056 13.8239 20.0058C13.7084 20.0061 13.5928 20.0062 13.4773 20.0063C13.3939 20.0064 13.3106 20.0066 13.2273 20.0069C13.0016 20.0074 12.7759 20.0076 12.5502 20.0078C12.4088 20.0079 12.2675 20.0081 12.1261 20.0082C11.6826 20.0088 11.2392 20.0091 10.7957 20.0093C10.2859 20.0095 9.77607 20.0102 9.26625 20.0113C8.87086 20.0121 8.47548 20.0125 8.08009 20.0126C7.84458 20.0126 7.60907 20.0128 7.37357 20.0136C7.15156 20.0142 6.92956 20.0143 6.70756 20.0139C6.62679 20.0139 6.54602 20.0141 6.46525 20.0145C5.03254 20.021 3.53514 19.7522 2.42187 18.789C2.38239 18.7592 2.34291 18.7294 2.30224 18.6987C1.36721 17.8432 1.03886 16.5727 0.969967 15.352C0.960056 15.0773 0.960967 14.8027 0.962009 14.5278C0.961914 14.4381 0.961768 14.3483 0.961577 14.2585C0.961214 14.0179 0.961573 13.7772 0.962098 13.5366C0.962544 13.283 0.96238 13.0295 0.962304 12.7759C0.962269 12.3507 0.962695 11.9254 0.963421 11.5001C0.964164 11.0644 0.964439 10.6288 0.964222 10.1931C0.963959 9.66498 0.96409 9.13684 0.964577 8.60868C0.964757 8.40814 0.964793 8.2076 0.964711 8.00706C0.964636 7.77059 0.964959 7.53412 0.965572 7.29765C0.965737 7.21148 0.965773 7.1253 0.965663 7.03913C0.964957 6.38519 0.98075 5.72827 1.14013 5.0903C1.14844 5.05639 1.15676 5.02248 1.16532 4.98754C1.4371 3.93589 2.08444 3.03391 3.0078 2.46091C3.23638 2.33109 3.41351 2.31595 3.67187 2.34372C3.87498 2.41142 3.97897 2.52162 4.10155 2.69528C4.20026 2.9162 4.20693 3.10772 4.14062 3.33981C4.01886 3.59291 3.76068 3.74308 3.53759 3.89889C2.94167 4.33102 2.6347 4.94987 2.49999 5.66403C2.44833 5.99841 2.42357 6.33462 2.40137 6.67203C2.39958 6.69911 2.39778 6.7262 2.39594 6.75411C2.39155 6.82044 2.38717 6.88677 2.3828 6.95309C2.40981 6.95305 2.43682 6.953 2.46464 6.95296C4.06494 6.95034 5.66525 6.94833 7.26555 6.94711C7.45766 6.94696 7.64977 6.94681 7.84187 6.94666C7.88012 6.94663 7.91836 6.9466 7.95777 6.94656C8.57721 6.94605 9.19665 6.94513 9.81609 6.94405C10.4516 6.94296 11.0871 6.94231 11.7226 6.94207C12.1148 6.94191 12.507 6.9414 12.8992 6.94045C13.1681 6.93983 13.4369 6.93964 13.7058 6.93979C13.861 6.93987 14.0162 6.93975 14.1713 6.93912C14.3134 6.93855 14.4555 6.93853 14.5976 6.93893C14.6733 6.939 14.749 6.93849 14.8247 6.93797C15.1305 6.93955 15.3359 6.95859 15.5762 7.16061C15.7372 7.35298 15.8042 7.51184 15.795 7.76135C15.764 7.9645 15.6756 8.11475 15.5298 8.2568C15.3554 8.3674 15.2161 8.40818 15.0096 8.40802C14.9419 8.40825 14.9419 8.40825 14.8728 8.40849C14.8234 8.40826 14.7739 8.40804 14.723 8.4078C14.6698 8.40784 14.6166 8.4079 14.5634 8.408C14.4174 8.40818 14.2713 8.40787 14.1252 8.40747C13.9676 8.40714 13.8101 8.40725 13.6525 8.40731C13.3796 8.40735 13.1066 8.40711 12.8337 8.40667C12.439 8.40603 12.0444 8.40583 11.6497 8.40573C11.0094 8.40556 10.3691 8.40504 9.72885 8.4043C9.10685 8.40358 8.48485 8.40303 7.86285 8.4027C7.82452 8.40268 7.78618 8.40266 7.74668 8.40264C7.55436 8.40253 7.36204 8.40243 7.16972 8.40234C5.57408 8.40153 3.97844 8.40015 2.3828 8.39841C2.38609 9.28775 2.38981 10.1771 2.39403 11.0664C2.39599 11.4794 2.3978 11.8924 2.39928 12.3054C2.40058 12.6657 2.40213 13.0259 2.40401 13.3862C2.40499 13.5767 2.40584 13.7672 2.40637 13.9577C2.40688 14.1375 2.40775 14.3174 2.40887 14.4973C2.40922 14.5627 2.40945 14.6282 2.40953 14.6937C2.41101 15.6971 2.5126 16.74 3.19625 17.5325C3.78234 18.1165 4.57072 18.3478 5.3662 18.4668C5.39604 18.4713 5.42588 18.4758 5.45662 18.4805C6.30004 18.5935 7.16324 18.5605 8.01213 18.5599C8.20137 18.5598 8.39061 18.5599 8.57985 18.56C8.89741 18.56 9.21496 18.5599 9.53252 18.5597C9.89757 18.5595 10.2626 18.5596 10.6277 18.5598C10.9434 18.56 11.259 18.56 11.5747 18.5599C11.7623 18.5599 11.9498 18.5598 12.1374 18.56C13.4031 18.5805 13.4031 18.5805 14.6606 18.4643C14.7088 18.4566 14.7088 18.4566 14.758 18.4487C15.4582 18.3316 16.1561 18.1187 16.6797 17.6172C16.7067 17.5917 16.7338 17.5662 16.7616 17.5399C17.3258 16.9594 17.5184 16.1322 17.5607 15.347C17.5624 15.3166 17.564 15.2861 17.5657 15.2548C17.5842 14.8818 17.5836 14.509 17.5832 14.1356C17.5832 14.0555 17.5833 13.9753 17.5834 13.8951C17.5836 13.6796 17.5835 13.464 17.5834 13.2484C17.5833 13.0215 17.5834 12.7946 17.5834 12.5677C17.5835 12.1868 17.5834 11.8059 17.5832 11.425C17.583 10.9864 17.5831 10.5477 17.5833 10.109C17.5835 9.73058 17.5835 9.35214 17.5834 8.9737C17.5833 8.74846 17.5833 8.52322 17.5834 8.29799C17.5836 8.08611 17.5835 7.87424 17.5832 7.66237C17.5832 7.58518 17.5832 7.508 17.5833 7.43081C17.5914 6.51514 17.5914 6.51514 17.4707 5.61032C17.4638 5.57769 17.457 5.54507 17.4499 5.51145C17.3525 5.07136 17.1732 4.70391 16.9141 4.33591C16.897 4.31108 16.8799 4.28626 16.8623 4.26068C16.319 3.55094 15.2844 3.32274 14.4531 3.20309C14.4543 3.22631 14.4556 3.24952 14.4568 3.27344C14.4618 3.38018 14.4648 3.4869 14.4678 3.59372C14.4697 3.63023 14.4717 3.66673 14.4737 3.70434C14.4789 3.94974 14.4386 4.08643 14.2797 4.27502C14.1242 4.43028 13.9828 4.46024 13.7695 4.46774C13.5217 4.45968 13.3863 4.40489 13.2129 4.2236C13.0594 4.01039 13.0353 3.83893 13.0361 3.58C13.0358 3.53147 13.0358 3.53147 13.0355 3.48196C13.035 3.37527 13.035 3.26859 13.0351 3.16189C13.035 3.08751 13.0348 3.01313 13.0346 2.93874C13.0343 2.7829 13.0343 2.62707 13.0345 2.47122C13.0348 2.27188 13.0341 2.07255 13.0332 1.87321C13.0326 1.71959 13.0326 1.56597 13.0327 1.41236C13.0327 1.33888 13.0325 1.2654 13.0321 1.19193C13.0316 1.089 13.0319 0.986095 13.0323 0.883166C13.032 0.853044 13.0317 0.822921 13.0314 0.791885C13.0336 0.563532 13.0754 0.372501 13.2326 0.196807C13.2559 0.178579 13.2792 0.160351 13.3032 0.14157C13.3266 0.122738 13.35 0.103905 13.3742 0.0845022C13.5651 -0.0526107 13.8521 -0.0430905 14.0706 0.0280447Z" fill="#2D303E"/>
<path d="M6.6748 0.197808C6.85062 0.350158 6.94247 0.518579 6.96553 0.749271C6.96846 0.890475 6.96676 1.03075 6.96288 1.17193C6.96218 1.22082 6.96147 1.26972 6.96074 1.32009C6.95891 1.44001 6.95635 1.55986 6.95312 1.67974C7.02855 1.67935 7.02855 1.67935 7.1055 1.67895C7.57967 1.67658 8.05383 1.67482 8.528 1.67367C8.77177 1.67306 9.01553 1.67223 9.2593 1.6709C9.4946 1.66963 9.72989 1.66893 9.96518 1.66862C10.0549 1.66841 10.1446 1.66798 10.2343 1.66735C10.3601 1.6665 10.4859 1.66638 10.6116 1.66644C10.6672 1.66581 10.6672 1.66581 10.7238 1.66516C10.9722 1.66632 11.1733 1.69339 11.3657 1.86544C11.3839 1.88876 11.4021 1.91207 11.4209 1.93609C11.4397 1.9595 11.4586 1.98292 11.478 2.00704C11.6081 2.18833 11.5777 2.40257 11.5625 2.61724C11.4958 2.82096 11.3848 2.9242 11.2109 3.04693C11.0002 3.13965 10.8028 3.13563 10.577 3.13392C10.5374 3.13394 10.4977 3.13395 10.4568 3.13396C10.3262 3.1339 10.1956 3.1333 10.065 3.13268C9.97425 3.13254 9.8835 3.13243 9.79275 3.13235C9.55425 3.13205 9.31574 3.13128 9.07724 3.13042C8.83373 3.12962 8.59021 3.12926 8.3467 3.12887C7.86915 3.12803 7.3916 3.1267 6.91405 3.12505C6.91467 3.15104 6.91528 3.17703 6.91591 3.20381C6.91836 3.32241 6.91988 3.44101 6.92138 3.55963C6.92236 3.60051 6.92334 3.6414 6.92435 3.68353C6.92709 3.97229 6.90015 4.14967 6.69433 4.36529C6.5271 4.49319 6.33626 4.54044 6.12716 4.5252C5.89384 4.47881 5.74544 4.363 5.59988 4.17497C5.5287 4.02404 5.53018 3.88488 5.53108 3.72138C5.53081 3.68744 5.53055 3.65349 5.53027 3.61852C5.52956 3.50657 5.52971 3.39463 5.52993 3.28268C5.52975 3.2047 5.52954 3.12672 5.52931 3.04874C5.52896 2.88537 5.52905 2.72202 5.52944 2.55866C5.52989 2.3495 5.5291 2.14036 5.52796 1.9312C5.52724 1.77018 5.52725 1.60916 5.52748 1.44814C5.52748 1.37103 5.52725 1.29392 5.52676 1.21682C5.52618 1.10892 5.5266 1.00106 5.52727 0.893161C5.52689 0.861437 5.52651 0.829713 5.52612 0.797027C5.52879 0.591402 5.56878 0.476682 5.70312 0.312555C5.97469 0.0552717 6.34978 -0.00908083 6.6748 0.197808Z" fill="#2D303E"/>
<path d="M10.4468 14.2651C10.6594 14.3852 10.7865 14.5302 10.8772 14.7598C10.9453 15.029 10.9362 15.3145 10.7945 15.5566C10.6689 15.7207 10.5064 15.8625 10.3125 15.9375C10.0173 15.9698 9.72099 15.9892 9.4757 15.8004C9.28902 15.6239 9.15646 15.4563 9.1275 15.1933C9.12433 14.9288 9.12385 14.7037 9.29687 14.4921C9.62916 14.1821 10.0204 14.0645 10.4468 14.2651Z" fill="#2D303E"/>
<path d="M6.43555 10.7666C6.62414 10.9657 6.74657 11.1952 6.763 11.4716C6.74671 11.7571 6.65395 11.9928 6.44531 12.1875C6.20701 12.3529 5.93568 12.4157 5.6488 12.3669C5.40032 12.2959 5.20706 12.17 5.06561 11.9516C4.95646 11.7356 4.91887 11.5283 4.96094 11.2891C5.05828 11.0049 5.19336 10.8022 5.46539 10.6656C5.80675 10.5219 6.12299 10.5819 6.43555 10.7666Z" fill="#2D303E"/>
<path d="M6.35682 14.3124C6.57476 14.4665 6.68083 14.643 6.73829 14.9023C6.77253 15.1549 6.73528 15.3284 6.61134 15.5542C6.48004 15.7183 6.33115 15.8591 6.13282 15.9375C5.86232 15.9661 5.57855 15.9804 5.33906 15.836C5.14191 15.6714 4.98033 15.4448 4.95118 15.1871C4.93707 14.9004 4.99463 14.6679 5.18892 14.4513C5.53501 14.1304 5.94306 14.0795 6.35682 14.3124Z" fill="#2D303E"/>
<path d="M10.5539 10.7621C10.7624 10.9321 10.8804 11.0846 10.9105 11.3604C10.9229 11.6591 10.8823 11.8718 10.6833 12.0982C10.4937 12.2785 10.2802 12.3768 10.0176 12.3864C9.71915 12.3683 9.52324 12.2738 9.32374 12.0532C9.14464 11.8417 9.12331 11.6371 9.12828 11.3674C9.15629 11.1012 9.28831 10.912 9.4922 10.7421C9.85036 10.5375 10.2086 10.5227 10.5539 10.7621Z" fill="#2D303E"/>
<path d="M14.7266 10.7421C14.9327 10.9203 15.0616 11.1053 15.0864 11.3807C15.0987 11.6944 15.0107 11.9316 14.7995 12.1649C14.626 12.3115 14.4189 12.3726 14.1968 12.3999C13.9144 12.3639 13.6987 12.2991 13.5156 12.0703C13.4974 12.0495 13.4793 12.0288 13.4605 12.0074C13.3027 11.8016 13.2892 11.6015 13.2988 11.347C13.341 11.0797 13.4659 10.8958 13.6694 10.7226C14.0393 10.5415 14.3687 10.5368 14.7266 10.7421Z" fill="#2D303E"/>
<path d="M14.5801 14.2383C14.7914 14.3609 14.9476 14.5437 15.0561 14.7608C15.1111 15.0662 15.0987 15.2995 14.9466 15.5755C14.82 15.7514 14.6578 15.8693 14.4531 15.9375C14.1535 15.9625 13.8783 15.9726 13.6328 15.7813C13.4524 15.611 13.3349 15.4453 13.3072 15.1934C13.304 14.9289 13.3035 14.7038 13.4766 14.4922C13.7829 14.2064 14.1748 14.0598 14.5801 14.2383Z" fill="#2D303E"/>
</g>
<defs>
<clipPath id="clip0_10_2286">
<rect width="20" height="20" fill="white"/>
</clipPath>
</defs>
</svg>
