<svg width="14" height="4" viewBox="0 0 14 4" fill="none" xmlns="http://www.w3.org/2000/svg">
<path d="M3.66665 1.99992C3.66665 2.44195 3.49105 2.86587 3.17849 3.17843C2.86593 3.49099 2.44201 3.66659 1.99998 3.66659C1.55795 3.66659 1.13403 3.49099 0.821468 3.17843C0.508908 2.86587 0.333313 2.44195 0.333313 1.99992C0.333313 1.55789 0.508908 1.13397 0.821468 0.821408C1.13403 0.508847 1.55795 0.333252 1.99998 0.333252C2.44201 0.333252 2.86593 0.508847 3.17849 0.821408C3.49105 1.13397 3.66665 1.55789 3.66665 1.99992ZM8.66665 1.99992C8.66665 2.44195 8.49105 2.86587 8.17849 3.17843C7.86593 3.49099 7.44201 3.66659 6.99998 3.66659C6.55795 3.66659 6.13403 3.49099 5.82147 3.17843C5.50891 2.86587 5.33331 2.44195 5.33331 1.99992C5.33331 1.55789 5.50891 1.13397 5.82147 0.821408C6.13403 0.508847 6.55795 0.333252 6.99998 0.333252C7.44201 0.333252 7.86593 0.508847 8.17849 0.821408C8.49105 1.13397 8.66665 1.55789 8.66665 1.99992ZM12 3.66659C12.442 3.66659 12.8659 3.49099 13.1785 3.17843C13.4911 2.86587 13.6666 2.44195 13.6666 1.99992C13.6666 1.55789 13.4911 1.13397 13.1785 0.821408C12.8659 0.508847 12.442 0.333252 12 0.333252C11.558 0.333252 11.134 0.508847 10.8215 0.821408C10.5089 1.13397 10.3333 1.55789 10.3333 1.99992C10.3333 2.44195 10.5089 2.86587 10.8215 3.17843C11.134 3.49099 11.558 3.66659 12 3.66659Z" fill="#737373"/>
</svg>
