<svg width="24" height="24" viewBox="0 0 24 24" fill="none" xmlns="http://www.w3.org/2000/svg">
<path d="M15.7213 3.59075C15.8681 3.71809 16.0194 3.83984 16.1702 3.96241C16.6203 4.3285 17.0678 4.6976 17.5096 5.07365C17.6923 5.22878 17.8787 5.37861 18.0666 5.52741C18.2066 5.64051 18.3436 5.7571 18.4804 5.87403C18.6893 6.05239 18.9019 6.22444 19.1191 6.39258C19.3895 6.60225 19.6488 6.82269 19.906 7.0484C20.07 7.19206 20.236 7.33085 20.4081 7.46485C21.3301 8.19783 21.8809 9.21045 22.0215 10.3776C22.0441 10.6628 22.0385 10.9497 22.0387 11.2356C22.039 11.3101 22.0392 11.3846 22.0394 11.4591C22.0401 11.6608 22.0404 11.8625 22.0406 12.0641C22.0407 12.1905 22.0409 12.3168 22.0411 12.4432C22.0418 12.8396 22.0422 13.236 22.0424 13.6325C22.0426 14.0881 22.0434 14.5437 22.0448 14.9993C22.0458 15.3527 22.0463 15.7061 22.0463 16.0596C22.0464 16.2701 22.0466 16.4805 22.0475 16.691C22.0483 16.8894 22.0484 17.0879 22.048 17.2863C22.0479 17.3584 22.0481 17.4306 22.0486 17.5027C22.0566 18.8203 21.6728 19.978 20.7392 20.9357C19.7157 21.9101 18.5476 22.0566 17.1974 22.0496C17.0239 22.0488 16.8504 22.0496 16.6769 22.0505C16.5649 22.0504 16.4528 22.0502 16.3408 22.0499C16.2898 22.0502 16.2388 22.0505 16.1863 22.0508C15.5568 22.0451 15.0336 21.8953 14.5645 21.4638C14.0219 20.8897 13.9552 20.2655 13.9544 19.5093C13.9542 19.3839 13.9534 19.2585 13.9525 19.1331C13.9499 18.7768 13.9485 18.4205 13.9473 18.0642C13.9466 17.8455 13.9451 17.6268 13.9433 17.4081C13.9428 17.3253 13.9425 17.2425 13.9425 17.1597C13.9424 16.3711 13.8431 15.7487 13.2852 15.1562C12.9204 14.8044 12.5138 14.63 12.0058 14.6045C11.4142 14.6262 10.9809 14.8756 10.5849 15.293C10.1094 15.8498 10.0646 16.4429 10.0638 17.1455C10.0636 17.2707 10.0628 17.396 10.0619 17.5212C10.0593 17.877 10.0578 18.2327 10.0567 18.5885C10.0559 18.8069 10.0545 19.0253 10.0527 19.2437C10.0522 19.3264 10.0519 19.409 10.0519 19.4916C10.0518 20.2343 9.98978 20.8635 9.46375 21.4354C8.93782 21.9325 8.37496 22.0459 7.67279 22.0454C7.61805 22.0456 7.56332 22.0458 7.50692 22.046C7.39141 22.0462 7.2759 22.0463 7.16039 22.0461C6.98615 22.0459 6.81194 22.047 6.6377 22.0482C5.82011 22.0504 5.05882 22.0268 4.31244 21.6563C4.24763 21.6252 4.24763 21.6252 4.18152 21.5935C3.24012 21.1141 2.54465 20.2587 2.20306 19.2656C2.0169 18.6531 1.96157 18.089 1.96114 17.4519C1.96092 17.3774 1.96068 17.3029 1.96043 17.2284C1.95982 17.0267 1.95951 16.8251 1.9593 16.6234C1.95917 16.497 1.95897 16.3707 1.95877 16.2443C1.95813 15.8479 1.95767 15.4515 1.95749 15.055C1.95728 14.5994 1.95646 14.1438 1.9551 13.6882C1.95408 13.3348 1.95361 12.9814 1.95355 12.6279C1.9535 12.4174 1.95323 12.207 1.95239 11.9965C1.95161 11.7981 1.95152 11.5997 1.95193 11.4012C1.95196 11.3291 1.95176 11.2569 1.9513 11.1848C1.94315 9.85253 2.33709 8.70129 3.27533 7.72852C3.45546 7.55337 3.64829 7.3958 3.84406 7.23853C3.99538 7.11605 4.14379 6.99055 4.29193 6.86426C4.50514 6.68289 4.72143 6.50636 4.94086 6.33253C5.08498 6.21619 5.22612 6.09664 5.36713 5.97657C5.58154 5.79399 5.79892 5.61621 6.01971 5.44135C6.15977 5.32825 6.29668 5.21166 6.43353 5.09473C6.64243 4.91638 6.85502 4.74432 7.0722 4.57618C7.34282 4.3664 7.60197 4.14558 7.85962 3.92016C8.05509 3.74936 8.25301 3.58311 8.4574 3.42298C8.54904 3.35094 8.63945 3.27798 8.72949 3.20399C10.9828 1.36744 13.6281 1.75703 15.7213 3.59075ZM9.84369 4.96876C9.76739 5.03364 9.69096 5.09837 9.61452 5.16308C9.56221 5.20737 9.50994 5.25171 9.45771 5.2961C9.27023 5.45518 9.07917 5.60913 8.88641 5.76179C8.74636 5.87489 8.60944 5.99147 8.4726 6.1084C8.2637 6.28676 8.05111 6.45882 7.83392 6.62696C7.56334 6.83672 7.30411 7.05742 7.04662 7.28298C6.85067 7.45434 6.6509 7.6191 6.44635 7.78016C6.30304 7.89507 6.1632 8.01371 6.02338 8.13282C5.84577 8.28406 5.66719 8.43325 5.48431 8.57813C5.4061 8.64052 5.32798 8.70303 5.24994 8.76563C5.2255 8.7852 5.20107 8.80477 5.1759 8.82493C4.60883 9.28204 4.15373 9.75085 4.03119 10.5C4.01687 10.7462 4.01739 10.9921 4.01757 11.2386C4.01729 11.3134 4.01697 11.3882 4.01662 11.463C4.01579 11.6654 4.01557 11.8679 4.01551 12.0703C4.01544 12.197 4.01524 12.3238 4.01499 12.4505C4.01413 12.8934 4.01374 13.3364 4.01382 13.7793C4.01387 14.1909 4.01289 14.6025 4.0114 15.0141C4.01017 15.3684 4.00968 15.7228 4.00973 16.0772C4.00976 16.2884 4.0095 16.4996 4.0085 16.7108C4.00758 16.9097 4.00759 17.1086 4.00827 17.3075C4.00836 17.38 4.00815 17.4526 4.00758 17.5251C4.0023 18.2416 4.14381 18.8608 4.63159 19.4075C4.97159 19.7306 5.42984 19.9753 5.90395 19.9741C5.94992 19.9741 5.99589 19.9741 6.04325 19.9741C6.09253 19.9738 6.1418 19.9736 6.19257 19.9733C6.24328 19.9733 6.294 19.9732 6.34625 19.9731C6.50816 19.9729 6.67006 19.9723 6.83197 19.9717C6.94177 19.9715 7.05157 19.9712 7.16138 19.971C7.43048 19.9705 7.69959 19.9697 7.96869 19.9688C7.9691 19.9036 7.9691 19.9036 7.96952 19.8371C7.97226 19.4241 7.97565 19.0112 7.97974 18.5982C7.98182 18.386 7.98366 18.1738 7.98493 17.9616C7.98616 17.7561 7.98807 17.5507 7.9904 17.3452C7.99117 17.2675 7.99172 17.1898 7.99201 17.1121C7.99749 15.8073 8.32077 14.6621 9.23431 13.6875C10.0221 12.9375 11.016 12.5569 12.0986 12.561C13.1469 12.5893 14.0715 13.028 14.8249 13.7412C15.5867 14.5495 15.9847 15.6298 15.9939 16.7333C15.9944 16.7685 15.9949 16.8038 15.9953 16.8401C15.9968 16.9553 15.998 17.0704 15.9991 17.1856C16.0001 17.2659 16.0011 17.3463 16.0021 17.4267C16.0047 17.6372 16.007 17.8478 16.0093 18.0583C16.0116 18.2736 16.0142 18.4888 16.0168 18.704C16.0218 19.1256 16.0266 19.5472 16.0312 19.9688C16.3489 19.9735 16.6665 19.9768 16.9842 19.9791C17.0921 19.98 17.2 19.9813 17.3078 19.9829C17.4637 19.9852 17.6194 19.9862 17.7753 19.9871C17.8228 19.988 17.8704 19.989 17.9195 19.99C18.4841 19.9902 18.9422 19.7829 19.3593 19.4063C19.6378 19.0979 19.8077 18.7729 19.9218 18.375C19.9301 18.3481 19.9383 18.3213 19.9468 18.2936C19.9757 18.1534 19.9751 18.0204 19.9756 17.8772C19.9758 17.8305 19.9758 17.8305 19.9761 17.7829C19.9766 17.6787 19.9768 17.5744 19.977 17.4702C19.9773 17.3954 19.9776 17.3206 19.9779 17.2459C19.9789 17.0002 19.9794 16.7546 19.9799 16.509C19.98 16.4243 19.9802 16.3395 19.9804 16.2548C19.9813 15.8565 19.982 15.4581 19.9824 15.0598C19.9828 14.601 19.9841 14.1422 19.986 13.6835C19.9874 13.3283 19.9881 12.9731 19.9882 12.6179C19.9883 12.4061 19.9888 12.1942 19.9899 11.9824C19.991 11.7827 19.9912 11.5831 19.9908 11.3835C19.9907 11.3106 19.991 11.2378 19.9917 11.1649C19.9978 10.4297 19.8512 9.79029 19.3298 9.24647C19.0658 8.9929 18.7786 8.76727 18.489 8.54402C18.2451 8.35525 18.0129 8.15458 17.781 7.95141C17.5848 7.77985 17.3848 7.61489 17.18 7.45368C17.0408 7.34199 16.9051 7.22632 16.7695 7.11036C16.5606 6.932 16.348 6.75994 16.1308 6.5918C15.8602 6.38204 15.601 6.16134 15.3435 5.93578C15.1475 5.76439 14.9478 5.59953 14.743 5.4386C14.6273 5.34563 14.5144 5.24999 14.4017 5.15329C13.6026 4.4682 12.8129 3.94887 11.7203 4.02155C10.9617 4.09874 10.405 4.48508 9.84369 4.96876Z" fill="currentColor"/>
</svg>
