<svg width="56" height="56" viewBox="0 0 56 56" fill="none" xmlns="http://www.w3.org/2000/svg">
<rect opacity="0.26" width="56" height="56" rx="12" fill="#EB966A"/>
<path d="M39.6667 11.3335H16.3333C13.5767 11.3335 11.3333 13.5768 11.3333 16.3335V21.0518C11.3333 22.8068 11.97 24.4018 13 25.6285V41.3335C13 41.7755 13.1756 42.1994 13.4882 42.512C13.8007 42.8246 14.2246 43.0002 14.6667 43.0002H28C28.442 43.0002 28.866 42.8246 29.1785 42.512C29.4911 42.1994 29.6667 41.7755 29.6667 41.3335V33.0002H36.3333V41.3335C36.3333 41.7755 36.5089 42.1994 36.8215 42.512C37.1341 42.8246 37.558 43.0002 38 43.0002H41.3333C41.7754 43.0002 42.1993 42.8246 42.5119 42.512C42.8244 42.1994 43 41.7755 43 41.3335V25.6268C44.03 24.4018 44.6667 22.8068 44.6667 21.0502V16.3335C44.6667 13.5768 42.4233 11.3335 39.6667 11.3335ZM41.3333 16.3335V21.0518C41.3333 22.9518 39.9183 24.5718 38.1817 24.6635L38 24.6668C36.1617 24.6668 34.6667 23.1718 34.6667 21.3335V14.6668H39.6667C40.5867 14.6668 41.3333 15.4152 41.3333 16.3335ZM24.6667 21.3335V14.6668H31.3333V21.3335C31.3333 23.1718 29.8383 24.6668 28 24.6668C26.1617 24.6668 24.6667 23.1718 24.6667 21.3335ZM14.6667 16.3335C14.6667 15.4152 15.4133 14.6668 16.3333 14.6668H21.3333V21.3335C21.3333 23.1718 19.8383 24.6668 18 24.6668L17.8183 24.6618C16.0817 24.5718 14.6667 22.9518 14.6667 21.0518V16.3335ZM24.6667 34.6668H18V29.6668H24.6667V34.6668Z" fill="url(#paint0_linear_66_1025)"/>
<defs>
<linearGradient id="paint0_linear_66_1025" x1="28" y1="11.3335" x2="28" y2="43.0002" gradientUnits="userSpaceOnUse">
<stop stop-color="#EA9769"/>
<stop offset="1" stop-color="#EA6969"/>
</linearGradient>
</defs>
</svg>
