<svg width="18" height="18" viewBox="0 0 18 18" fill="none" xmlns="http://www.w3.org/2000/svg">
<g clip-path="url(#clip0_122_1279)">
<path d="M13.7278 9.7318C13.8506 9.73172 13.9734 9.73108 14.0961 9.73042C15.1309 9.72779 16.3248 9.74209 17.1565 10.4414C17.1904 10.4688 17.1904 10.4688 17.2251 10.4968C17.831 11.0374 17.9483 12.0003 18.0003 12.7618C18.0057 12.926 18.0069 13.0901 18.0074 13.2544C18.0076 13.2889 18.0076 13.2889 18.0077 13.3241C18.0082 13.4464 18.0086 13.5686 18.0087 13.6909C18.0089 13.7899 18.0094 13.8889 18.0102 13.9879C18.0288 16.3282 18.0288 16.3282 17.2952 17.1934C16.8399 17.6487 16.2316 17.838 15.6097 17.9297C15.5689 17.936 15.5281 17.9422 15.486 17.9486C15.0025 18.0156 14.5163 18.012 14.0292 18.0111C13.9318 18.011 13.8345 18.0112 13.7372 18.0119C12.6293 18.0191 11.3509 18.0195 10.4878 17.2178C9.70491 16.3888 9.72542 15.0512 9.72939 13.9869C9.72977 13.867 9.72939 13.747 9.72895 13.627C9.72823 12.5524 9.76381 11.3132 10.5382 10.48C11.0523 10.0016 11.8028 9.84443 12.4807 9.77347C12.5226 9.76885 12.5226 9.76885 12.5653 9.76414C12.9519 9.7276 13.3398 9.73177 13.7278 9.7318ZM11.604 11.6038C11.2001 12.1791 11.2684 13.0675 11.2717 13.7334C11.2723 13.869 11.2717 14.0045 11.271 14.1401C11.2405 15.189 11.2405 15.189 11.615 16.1368C12.4406 16.7657 14.2673 16.5526 15.2474 16.4293C15.7569 16.3648 15.7569 16.3648 16.1749 16.0924C16.5777 15.5184 16.4962 14.5655 16.4952 13.8868C16.4951 13.8469 16.4951 13.8469 16.4951 13.8062C16.4938 13.2241 16.4801 12.6421 16.3523 12.0718C16.3471 12.0483 16.3418 12.0248 16.3364 12.0005C16.29 11.817 16.2172 11.6632 16.0649 11.5463C15.5582 11.2969 14.9754 11.2805 14.4209 11.2632C14.3964 11.2624 14.3719 11.2617 14.3467 11.2609C12.9192 11.1705 12.9192 11.1705 11.604 11.6038Z" fill="currentColor"/>
<path d="M3.97372 -0.01114C4.07082 -0.0109775 4.1679 -0.0112199 4.265 -0.011861C5.37227 -0.0191006 6.64988 -0.0190163 7.51241 0.782184C7.85966 1.14986 8.02606 1.60527 8.12765 2.09175C8.13309 2.11731 8.13854 2.14287 8.14415 2.1692C8.26109 2.77632 8.27314 3.39422 8.27085 4.0104C8.27047 4.1307 8.27085 4.25098 8.27129 4.37128C8.27201 5.44637 8.23686 6.6863 7.46201 7.51996C6.9479 7.99843 6.19746 8.15556 5.51949 8.22652C5.49159 8.2296 5.46369 8.23268 5.43495 8.23585C5.04835 8.27239 4.66043 8.26822 4.27246 8.26819C4.14966 8.26827 4.02688 8.26891 3.90409 8.26957C2.85996 8.2722 1.58473 8.26306 0.77908 7.50123C0.0736251 6.79906 -0.0040359 5.6771 -0.00718031 4.73671C-0.00727971 4.71325 -0.00737911 4.68979 -0.00748152 4.66562C-0.00800498 4.54114 -0.0083316 4.41666 -0.00848494 4.29218C-0.00863811 4.19121 -0.00912318 4.09026 -0.00992689 3.9893C-0.0182653 2.92021 -0.0273114 1.67031 0.705008 0.806629C1.54466 -0.0330274 2.87296 -0.0131359 3.97372 -0.01114ZM1.8984 1.82808C1.40489 2.36519 1.50405 3.42079 1.50509 4.11324C1.50511 4.13981 1.50513 4.16637 1.50515 4.19375C1.4626 5.38226 1.4626 5.38226 1.8984 6.43355C2.32046 6.75138 3.07389 6.72104 3.57931 6.73677C3.61606 6.73792 3.61606 6.73792 3.65356 6.7391C5.08108 6.82946 5.08108 6.82946 6.3962 6.3962C6.80011 5.82093 6.73185 4.93251 6.72855 4.26658C6.72799 4.131 6.72855 3.99545 6.72922 3.85987C6.75978 2.811 6.75978 2.811 6.38521 1.86324C5.54137 1.22031 2.78449 1.27018 1.8984 1.82808Z" fill="currentColor"/>
<path d="M4.01084 9.72909C4.13114 9.72947 4.25142 9.72909 4.37172 9.72864C4.98979 9.72822 5.61085 9.74851 6.21646 9.88328C6.24989 9.89067 6.28332 9.89806 6.31776 9.90568C6.9082 10.0465 7.42929 10.3516 7.76993 10.8633C8.04937 11.3463 8.17293 11.9295 8.22696 12.4804C8.22999 12.5082 8.23302 12.5359 8.23614 12.5645C8.27274 12.9513 8.26866 13.3393 8.26863 13.7275C8.26871 13.8503 8.26935 13.9731 8.27002 14.0958C8.27264 15.14 8.2635 16.4152 7.50168 17.2209C6.80192 17.9239 5.68375 18.0039 4.74608 18.0071C4.72305 18.0072 4.70003 18.0073 4.6763 18.0074C4.55406 18.0079 4.43182 18.0083 4.30957 18.0084C4.21055 18.0086 4.11155 18.0091 4.01253 18.0099C1.67221 18.0285 1.67221 18.0285 0.807071 17.2949C0.444415 16.9323 0.242577 16.4591 0.130038 15.9653C0.124861 15.9426 0.119683 15.9199 0.114348 15.8966C0.0972029 15.8128 0.0836107 15.729 0.0707121 15.6445C0.064478 15.6043 0.0582439 15.5641 0.0518208 15.5226C-0.016272 15.0337 -0.0115734 14.5416 -0.0106983 14.049C-0.0105359 13.95 -0.0107777 13.8509 -0.0114193 13.7519C-0.0185623 12.6385 -0.023071 11.3549 0.782626 10.4875C1.1503 10.1403 1.60571 9.97388 2.0922 9.87229C2.11775 9.86684 2.14331 9.8614 2.16964 9.85579C2.77676 9.73884 3.39466 9.7268 4.01084 9.72909ZM1.86368 11.6147C1.22379 12.4546 1.45072 14.3348 1.58243 15.3281C1.62622 15.6286 1.67456 15.9601 1.90804 16.1746C2.47925 16.5755 3.42001 16.4958 4.09391 16.4948C4.12139 16.4948 4.14888 16.4948 4.1772 16.4948C5.37432 16.539 5.37432 16.539 6.43399 16.1015C6.74976 15.6822 6.72057 14.9457 6.72239 14.4441C6.72259 14.4003 6.72279 14.3565 6.72299 14.3114C6.72332 14.219 6.72355 14.1265 6.72369 14.0341C6.72392 13.895 6.72512 13.7561 6.72623 13.617C6.75514 12.5666 6.75514 12.5666 6.39664 11.6037C5.52675 10.993 2.70986 10.9448 1.86368 11.6147Z" fill="currentColor"/>
<path d="M14.2517 0.810745C14.4458 0.91904 14.5543 1.05256 14.6253 1.26558C14.6284 1.33406 14.6294 1.40264 14.6293 1.47119C14.6293 1.53452 14.6293 1.53452 14.6293 1.59914C14.6291 1.64473 14.6289 1.69033 14.6287 1.7373C14.6286 1.78445 14.6286 1.83159 14.6286 1.87873C14.6284 2.0027 14.6281 2.12667 14.6277 2.25065C14.6273 2.37719 14.6272 2.50374 14.627 2.63029C14.6266 2.87851 14.626 3.12673 14.6253 3.37495C14.6512 3.37472 14.6772 3.37449 14.7039 3.37424C14.9491 3.37213 15.1943 3.37052 15.4394 3.36949C15.5655 3.36894 15.6915 3.3682 15.8175 3.367C15.9392 3.36585 16.061 3.36522 16.1827 3.36495C16.2515 3.36466 16.3203 3.36384 16.3892 3.36301C16.4525 3.36299 16.4525 3.36299 16.5171 3.36298C16.5541 3.36275 16.5911 3.36251 16.6292 3.36227C16.842 3.38786 16.9858 3.49566 17.1214 3.6562C17.2685 3.86654 17.2978 4.07155 17.262 4.32417C17.1988 4.5414 17.0631 4.69376 16.8753 4.81636C16.7415 4.8797 16.6366 4.89529 16.4891 4.89466C16.4269 4.89465 16.4269 4.89465 16.3633 4.89464C16.2966 4.89409 16.2966 4.89409 16.2286 4.89354C16.1599 4.89339 16.1599 4.89339 16.0898 4.89324C15.9685 4.89297 15.8472 4.89228 15.7259 4.8915C15.6019 4.89078 15.478 4.89046 15.354 4.89011C15.1111 4.88935 14.8682 4.88815 14.6253 4.88667C14.6257 4.91248 14.6261 4.93828 14.6265 4.96486C14.63 5.20896 14.6327 5.45306 14.6344 5.69719C14.6353 5.82267 14.6365 5.94814 14.6385 6.07361C14.6405 6.19488 14.6415 6.31613 14.642 6.43742C14.6424 6.50581 14.6438 6.5742 14.6452 6.64258C14.6453 6.93648 14.6027 7.11688 14.3988 7.33044C14.2301 7.48435 14.0514 7.54164 13.8241 7.53424C13.5732 7.49922 13.3822 7.40023 13.2245 7.20273C13.1321 7.05255 13.1048 6.92609 13.1056 6.75053C13.1056 6.70902 13.1056 6.6675 13.1056 6.62473C13.1061 6.55803 13.1061 6.55803 13.1067 6.48999C13.1068 6.4442 13.1069 6.39841 13.107 6.35123C13.1073 6.22992 13.108 6.10861 13.1087 5.98729C13.1095 5.86333 13.1098 5.73937 13.1101 5.61541C13.1109 5.3725 13.1121 5.12958 13.1136 4.88667C13.0882 4.88699 13.0628 4.8873 13.0367 4.88762C12.7967 4.89045 12.5568 4.89258 12.3168 4.89396C12.1934 4.89469 12.0701 4.89568 11.9468 4.89728C11.8047 4.89911 11.6626 4.89979 11.5205 4.90041C11.4766 4.90113 11.4327 4.90186 11.3875 4.90261C11.082 4.90268 10.8846 4.86977 10.6592 4.64937C10.5187 4.44061 10.4344 4.22884 10.4768 3.97261C10.5523 3.70895 10.6933 3.54911 10.9247 3.40799C11.0255 3.36609 11.1046 3.36651 11.2138 3.36697C11.2771 3.36698 11.2771 3.36698 11.3417 3.36699C11.4098 3.36753 11.4098 3.36753 11.4793 3.36809C11.5264 3.36822 11.5735 3.36832 11.6206 3.36839C11.7443 3.36866 11.868 3.36935 11.9917 3.37013C12.118 3.37085 12.2443 3.37117 12.3706 3.37152C12.6183 3.37227 12.8659 3.37347 13.1136 3.37495C13.1133 3.34959 13.1129 3.32423 13.1126 3.2981C13.1098 3.05814 13.1077 2.81817 13.1063 2.57819C13.1055 2.45484 13.1046 2.3315 13.103 2.20815C13.1011 2.06608 13.1004 1.92402 13.0998 1.78194C13.0991 1.73802 13.0984 1.6941 13.0976 1.64885C13.0976 1.36543 13.125 1.16918 13.3156 0.948349C13.3352 0.932669 13.3548 0.916988 13.375 0.900833C13.3946 0.884609 13.4141 0.868385 13.4342 0.851669C13.6877 0.686224 13.9804 0.68744 14.2517 0.810745Z" fill="currentColor"/>
</g>
<defs>
<clipPath id="clip0_122_1279">
<rect width="18" height="18" fill="currentColor"/>
</clipPath>
</defs>
</svg>
