<svg width="20" height="20" viewBox="0 0 20 20" fill="none" xmlns="http://www.w3.org/2000/svg">
<rect x="0.5" y="0.5" width="19" height="19" rx="9.5" stroke="#EA7C69"/>
<g clip-path="url(#clip0_16_2362)">
<path d="M14.375 9.375H10.625V5.625C10.625 5.27982 10.3452 5 10 5C9.65482 5 9.375 5.27982 9.375 5.625V9.375H5.625C5.27982 9.375 5 9.65482 5 10C5 10.3452 5.27982 10.625 5.625 10.625H9.375V14.375C9.375 14.7202 9.65482 15 10 15C10.3452 15 10.625 14.7202 10.625 14.375V10.625H14.375C14.7202 10.625 15 10.3452 15 10C15 9.65482 14.7202 9.375 14.375 9.375Z" fill="#EA7C69"/>
</g>
<defs>
<clipPath id="clip0_16_2362">
<rect width="10" height="10" fill="white" transform="translate(5 5)"/>
</clipPath>
</defs>
</svg>
