<svg width="20" height="20" viewBox="0 0 20 20" fill="none" xmlns="http://www.w3.org/2000/svg">
<g clip-path="url(#clip0_17_4631)">
<path d="M3.05086 11.6355C3.12614 11.6352 3.12614 11.6352 3.20294 11.635C3.25896 11.635 3.31498 11.6351 3.37099 11.6351C3.43025 11.635 3.48951 11.6349 3.54876 11.6348C3.71202 11.6344 3.87527 11.6344 4.03853 11.6343C4.21443 11.6343 4.39034 11.634 4.56624 11.6337C4.95105 11.6332 5.33586 11.633 5.72067 11.6328C5.96082 11.6327 6.20097 11.6325 6.44111 11.6323C7.10567 11.6319 7.77023 11.6315 8.43479 11.6313C8.47734 11.6313 8.51989 11.6313 8.56372 11.6313C8.60637 11.6313 8.64903 11.6313 8.69297 11.6313C8.7794 11.6313 8.86583 11.6312 8.95226 11.6312C8.99513 11.6312 9.038 11.6312 9.08218 11.6312C9.77719 11.631 10.4722 11.6304 11.1672 11.6294C11.8803 11.6285 12.5934 11.628 13.3065 11.628C13.7071 11.628 14.1077 11.6277 14.5082 11.627C14.8492 11.6264 15.1903 11.6262 15.5313 11.6265C15.7054 11.6267 15.8794 11.6267 16.0535 11.6261C16.2128 11.6256 16.372 11.6257 16.5313 11.6261C16.589 11.6262 16.6467 11.6261 16.7044 11.6257C16.7827 11.6253 16.861 11.6257 16.9393 11.6261C16.9828 11.626 17.0263 11.626 17.0712 11.626C17.2304 11.646 17.328 11.7154 17.4525 11.8118C17.5357 11.9225 17.5179 12.0365 17.5142 12.1699C17.4945 12.3029 17.4419 12.3714 17.3437 12.4609C17.2198 12.5229 17.0864 12.5047 16.9504 12.5038C16.9193 12.5037 16.8882 12.5037 16.8561 12.5036C16.7566 12.5034 16.6571 12.5029 16.5576 12.5024C16.4902 12.5022 16.4228 12.502 16.3554 12.5019C16.1901 12.5015 16.0247 12.5008 15.8594 12.5C15.8598 12.5413 15.8597 12.5413 15.8601 12.5834C15.8625 12.8442 15.8643 13.1051 15.8654 13.3659C15.866 13.5 15.8669 13.6341 15.8682 13.7682C15.8697 13.9227 15.8703 14.0773 15.8708 14.2318C15.8714 14.2794 15.872 14.3269 15.8726 14.3759C15.8727 14.852 15.779 15.1938 15.4414 15.536C15.127 15.8236 14.7945 15.8652 14.3829 15.8648C14.3247 15.865 14.3247 15.865 14.2653 15.8652C14.1351 15.8655 14.0049 15.8656 13.8747 15.8656C13.7814 15.8658 13.6881 15.866 13.5948 15.8662C13.3412 15.8667 13.0876 15.867 12.834 15.8672C12.6756 15.8673 12.5171 15.8674 12.3587 15.8676C11.9197 15.8681 11.4807 15.8685 11.0416 15.8686C10.9995 15.8686 10.9995 15.8686 10.9565 15.8687C10.9284 15.8687 10.9003 15.8687 10.8713 15.8687C10.8142 15.8687 10.7572 15.8687 10.7001 15.8687C10.6719 15.8687 10.6436 15.8688 10.6144 15.8688C10.1562 15.8689 9.69803 15.8696 9.23984 15.8705C8.76902 15.8714 8.29821 15.8719 7.82739 15.872C7.56321 15.872 7.29902 15.8722 7.03484 15.8729C6.78626 15.8736 6.53769 15.8737 6.28911 15.8733C6.198 15.8733 6.10689 15.8735 6.01578 15.8738C5.89113 15.8743 5.76651 15.8741 5.64186 15.8737C5.60605 15.874 5.57023 15.8743 5.53333 15.8747C5.09912 15.8714 4.7731 15.7464 4.46394 15.4414C4.22207 15.177 4.1354 14.8918 4.13618 14.5355C4.13618 14.4901 4.13618 14.4448 4.13618 14.398C4.13639 14.3495 4.13659 14.3009 4.1368 14.2509C4.13685 14.2009 4.13691 14.1509 4.13696 14.0994C4.13711 13.9669 4.1375 13.8344 4.13793 13.7019C4.13833 13.5666 4.13851 13.4312 4.1387 13.2958C4.13913 13.0305 4.13979 12.7653 4.14061 12.5C4.07825 12.5012 4.07825 12.5012 4.01462 12.5025C3.85993 12.5053 3.70524 12.5071 3.55052 12.5086C3.48365 12.5093 3.41678 12.5104 3.34991 12.5118C3.25362 12.5137 3.15736 12.5145 3.06105 12.5152C3.01642 12.5164 3.01642 12.5164 2.97089 12.5177C2.82479 12.5177 2.74292 12.5055 2.61873 12.4258C2.48021 12.2831 2.48471 12.1643 2.4861 11.972C2.49999 11.875 2.49999 11.875 2.59032 11.7553C2.74797 11.6417 2.86121 11.6357 3.05086 11.6355ZM4.99999 12.5C4.90451 13.7035 4.90451 13.7035 5.11717 14.8437C5.25738 14.9794 5.40072 15.0048 5.59089 15.0051C5.62287 15.0053 5.65485 15.0054 5.68781 15.0056C5.72273 15.0055 5.75765 15.0055 5.79364 15.0055C5.8309 15.0056 5.86817 15.0057 5.90657 15.0058C6.03176 15.0062 6.15696 15.0062 6.28215 15.0063C6.37179 15.0065 6.46142 15.0066 6.55105 15.0069C6.79479 15.0074 7.03853 15.0076 7.28227 15.0078C7.4345 15.0079 7.58672 15.0081 7.73895 15.0082C8.16054 15.0087 8.58212 15.0091 9.00371 15.0093C9.03068 15.0093 9.05765 15.0093 9.08544 15.0093C9.126 15.0093 9.126 15.0093 9.16738 15.0093C9.22216 15.0093 9.27695 15.0093 9.33174 15.0094C9.35891 15.0094 9.38609 15.0094 9.41409 15.0094C9.85443 15.0095 10.2948 15.0102 10.7351 15.0111C11.1873 15.0121 11.6396 15.0125 12.0918 15.0126C12.3457 15.0126 12.5995 15.0129 12.8534 15.0136C13.0921 15.0142 13.3309 15.0143 13.5697 15.0139C13.6573 15.0139 13.7449 15.0141 13.8325 15.0145C13.9522 15.015 14.0718 15.0147 14.1915 15.0143C14.2261 15.0146 14.2608 15.015 14.2965 15.0153C14.5083 15.0136 14.6558 14.9825 14.8437 14.8828C15.3973 14.3108 15 13.296 15 12.5C11.7 12.5 8.39999 12.5 4.99999 12.5Z" fill="currentColor"/>
<path d="M5.61702 4.13513C5.67524 4.13495 5.67524 4.13495 5.73464 4.13478C5.86484 4.13444 5.99503 4.13438 6.12523 4.13432C6.21853 4.13414 6.31183 4.13394 6.40513 4.13373C6.65872 4.13322 6.91231 4.13297 7.1659 4.13279C7.32435 4.13269 7.4828 4.13252 7.64125 4.13234C8.08026 4.13187 8.51927 4.13147 8.95828 4.13133C8.98637 4.13133 9.01445 4.13132 9.04338 4.13131C9.07153 4.1313 9.09968 4.13129 9.12868 4.13128C9.18572 4.13126 9.24275 4.13125 9.29979 4.13123C9.34222 4.13122 9.34222 4.13122 9.38552 4.1312C9.84371 4.13105 10.3019 4.13037 10.7601 4.12946C11.2309 4.12853 11.7017 4.12804 12.1725 4.128C12.4367 4.12796 12.7009 4.12774 12.9651 4.12703C13.2137 4.12639 13.4622 4.1263 13.7108 4.12664C13.8019 4.12667 13.893 4.12651 13.9841 4.12612C14.1088 4.12562 14.2334 4.12585 14.3581 4.12626C14.3939 4.12594 14.4297 4.12563 14.4666 4.12531C14.9008 4.12861 15.2268 4.2536 15.536 4.55855C15.8143 4.86285 15.865 5.18666 15.8662 5.5863C15.8665 5.62138 15.8667 5.65647 15.867 5.69262C15.8678 5.80837 15.8682 5.92412 15.8686 6.03988C15.8688 6.07948 15.8689 6.11909 15.8691 6.1599C15.8699 6.36937 15.8705 6.57885 15.8709 6.78833C15.8713 7.00458 15.8726 7.22082 15.8742 7.43707C15.8752 7.60352 15.8755 7.76996 15.8757 7.93641C15.8759 8.01614 15.8763 8.09586 15.877 8.17558C15.878 8.28713 15.878 8.39864 15.8777 8.51019C15.8784 8.55942 15.8784 8.55942 15.8792 8.60964C15.8774 8.8178 15.8421 8.93699 15.7031 9.10155C15.5585 9.19795 15.4412 9.20627 15.2734 9.17968C15.0585 9.06249 15.0585 9.06249 14.9999 8.9453C14.9958 8.83592 14.9939 8.72746 14.9938 8.61805C14.9936 8.58419 14.9934 8.55032 14.9932 8.51544C14.9928 8.44173 14.9924 8.36803 14.9922 8.29432C14.9917 8.17757 14.9909 8.06083 14.9901 7.94408C14.9877 7.61207 14.9856 7.28006 14.9843 6.94805C14.9834 6.74508 14.9821 6.54212 14.9803 6.33915C14.9798 6.26186 14.9794 6.18457 14.9793 6.10728C14.9791 5.99891 14.9782 5.89057 14.9772 5.7822C14.9773 5.75043 14.9774 5.71867 14.9775 5.68594C14.9745 5.48165 14.9515 5.33242 14.8437 5.15624C14.6246 5.03474 14.4394 5.0223 14.1922 5.02417C14.1548 5.02399 14.1175 5.02381 14.079 5.02362C13.9541 5.02315 13.8293 5.02352 13.7045 5.02389C13.6148 5.02373 13.5252 5.02352 13.4355 5.02327C13.1923 5.02273 12.949 5.02294 12.7058 5.02331C12.4512 5.02361 12.1966 5.02333 11.942 5.02315C11.4871 5.02292 11.0321 5.02329 10.5772 5.02388C10.165 5.0244 9.75276 5.02431 9.34054 5.02377C8.86148 5.02315 8.38243 5.02291 7.90337 5.02326C7.64991 5.02344 7.39645 5.02347 7.14299 5.02308C6.9047 5.02274 6.66642 5.02298 6.42813 5.02365C6.34069 5.02381 6.25325 5.02376 6.16581 5.0235C6.04643 5.02318 5.92707 5.02359 5.80769 5.02417C5.77311 5.02391 5.73852 5.02365 5.70289 5.02338C5.49193 5.02538 5.34196 5.05324 5.1562 5.15624C5.0306 5.36124 5.02251 5.5443 5.02522 5.78034C5.02513 5.81436 5.02505 5.84837 5.02496 5.88342C5.02484 5.95685 5.02498 6.03027 5.02535 6.1037C5.02589 6.21995 5.02564 6.33619 5.02516 6.45244C5.02396 6.78281 5.02415 7.11318 5.02493 7.44355C5.02536 7.64599 5.02484 7.84841 5.02376 8.05084C5.02355 8.12787 5.02371 8.2049 5.02425 8.28193C5.02499 8.38956 5.02455 8.49712 5.02384 8.60474C5.02437 8.63649 5.02489 8.66823 5.02542 8.70093C5.023 8.86772 5.01457 8.92723 4.90568 9.0618C4.7632 9.17293 4.67629 9.19314 4.49351 9.19082C4.36751 9.17316 4.30428 9.11405 4.2187 9.02343C4.11198 8.87148 4.12932 8.70023 4.12984 8.52216C4.12954 8.46991 4.12954 8.46991 4.12924 8.41662C4.12869 8.3014 4.12873 8.18619 4.12882 8.07097C4.12867 7.99068 4.1285 7.91039 4.12831 7.8301C4.12802 7.66165 4.12803 7.4932 4.12824 7.32474C4.12847 7.1096 4.12781 6.89447 4.1269 6.67933C4.12632 6.51338 4.12629 6.34743 4.12641 6.18147C4.12639 6.1022 4.12619 6.02294 4.12579 5.94367C4.12531 5.83234 4.12558 5.72104 4.12603 5.60971C4.12573 5.57739 4.12543 5.54507 4.12512 5.51177C4.12889 5.08757 4.26157 4.76499 4.55851 4.46395C4.8729 4.17641 5.20539 4.13474 5.61702 4.13513Z" fill="currentColor"/>
<path d="M14.7532 -0.0240036C14.81 -0.0243288 14.81 -0.0243288 14.868 -0.0246605C14.9931 -0.0251216 15.1182 -0.0241723 15.2434 -0.0231644C15.3306 -0.0230975 15.4179 -0.0231001 15.5051 -0.0231692C15.6881 -0.0231046 15.871 -0.0223739 16.0539 -0.0211426C16.2877 -0.0195972 16.5214 -0.0194216 16.7552 -0.0197154C16.9354 -0.0198357 17.1157 -0.0193602 17.2959 -0.0186946C17.3821 -0.0184211 17.4682 -0.0182979 17.5543 -0.0183311C17.6752 -0.0182603 17.7961 -0.0174203 17.9169 -0.0163742C17.9521 -0.0164887 17.9873 -0.0166032 18.0235 -0.0167211C18.5955 -0.00914028 19.0623 0.237844 19.4647 0.631743C19.773 0.954283 20.0026 1.39148 20.006 1.84697C20.0064 1.8801 20.0067 1.91323 20.0071 1.94736C20.0073 2.0014 20.0073 2.0014 20.0076 2.05652C20.008 2.11381 20.008 2.11381 20.0085 2.17225C20.0095 2.29855 20.0101 2.42484 20.0107 2.55115C20.0109 2.59429 20.0111 2.63743 20.0113 2.68187C20.0124 2.91005 20.0131 3.13822 20.0137 3.36639C20.0142 3.55536 20.0153 3.7443 20.0169 3.93326C20.0188 4.16139 20.0198 4.38951 20.0201 4.61765C20.0203 4.7046 20.0209 4.79155 20.0219 4.8785C20.0231 5.00007 20.0231 5.12159 20.0228 5.24317C20.0235 5.27911 20.0241 5.31506 20.0248 5.35209C20.023 5.5286 20.0186 5.60134 19.9064 5.74448C19.7579 5.85529 19.6361 5.87615 19.4531 5.8594C19.2917 5.78013 19.2078 5.71222 19.1406 5.5469C19.1309 5.47081 19.1309 5.47081 19.1308 5.38986C19.1306 5.35899 19.1304 5.32811 19.1302 5.2963C19.1303 5.26278 19.1305 5.22925 19.1307 5.19471C19.1305 5.15912 19.1304 5.12353 19.1302 5.08686C19.13 5.0096 19.1299 4.93234 19.1299 4.85507C19.13 4.73254 19.1295 4.61002 19.1288 4.48749C19.127 4.1391 19.126 3.79072 19.1258 3.44234C19.1256 3.22914 19.1246 3.01596 19.1232 2.80278C19.1228 2.72177 19.1227 2.64075 19.123 2.55974C19.1232 2.44597 19.1225 2.33225 19.1217 2.21849C19.122 2.18544 19.1223 2.15238 19.1226 2.11833C19.1178 1.76493 18.9947 1.46024 18.7528 1.20151C18.4728 0.963774 18.1716 0.892708 17.8138 0.892926C17.778 0.89279 17.7422 0.892654 17.7053 0.892514C17.6274 0.892227 17.5495 0.892018 17.4716 0.891878C17.3483 0.891598 17.225 0.890986 17.1017 0.890263C16.7511 0.888213 16.4005 0.886339 16.0499 0.885735C15.8355 0.885341 15.6211 0.884195 15.4067 0.882558C15.325 0.882077 15.2433 0.881877 15.1616 0.881965C15.0472 0.882056 14.9329 0.88119 14.8185 0.880108C14.768 0.880495 14.768 0.880495 14.7165 0.88089C14.5063 0.877627 14.3858 0.842698 14.2188 0.703154C14.1404 0.591085 14.1302 0.508349 14.1431 0.373564C14.1452 0.344611 14.1472 0.315657 14.1493 0.285826C14.2518 -0.0195737 14.476 -0.0280405 14.7532 -0.0240036Z" fill="currentColor"/>
<path d="M1.84699 -0.00599623C1.88012 -0.00633218 1.91325 -0.00666814 1.94738 -0.00701427C2.00141 -0.00726388 2.00141 -0.00726388 2.05654 -0.00751853C2.09473 -0.00783796 2.13292 -0.0081574 2.17227 -0.00848651C2.29857 -0.00945531 2.42486 -0.0101019 2.55116 -0.0106657C2.61587 -0.0109776 2.61587 -0.0109776 2.68189 -0.0112958C2.91006 -0.0123389 3.13824 -0.0130963 3.36641 -0.0136602C3.55537 -0.0141821 3.74432 -0.0152719 3.93328 -0.0168645C4.16141 -0.0187874 4.38952 -0.0197582 4.61766 -0.0200363C4.70462 -0.0202989 4.79157 -0.0208947 4.87852 -0.0218289C5.00009 -0.0230609 5.12161 -0.0230673 5.24319 -0.0227773C5.27913 -0.0234182 5.31507 -0.024059 5.35211 -0.0247192C5.52862 -0.0229937 5.60136 -0.0185476 5.7445 0.0936127C5.85531 0.242186 5.87617 0.363918 5.85942 0.54689C5.78015 0.708373 5.71224 0.792254 5.54692 0.85939C5.47083 0.869177 5.47083 0.869177 5.38988 0.869217C5.359 0.869427 5.32813 0.869637 5.29632 0.869854C5.26279 0.869693 5.22927 0.869532 5.19473 0.869366C5.14134 0.869578 5.14134 0.869578 5.08688 0.869794C5.00962 0.870064 4.93235 0.870162 4.85509 0.870109C4.73256 0.870071 4.61004 0.870577 4.4875 0.871241C4.13912 0.873047 3.79074 0.874009 3.44235 0.874268C3.22916 0.874464 3.01598 0.875415 2.80279 0.87682C2.72178 0.877201 2.64077 0.877294 2.55976 0.877086C2.44599 0.876808 2.33227 0.877489 2.2185 0.878369C2.18545 0.878049 2.1524 0.87773 2.11835 0.877401C1.76495 0.882226 1.46025 1.0053 1.20152 1.24727C0.963791 1.52726 0.892725 1.82845 0.892943 2.18619C0.892807 2.22203 0.892672 2.25786 0.892532 2.29478C0.892244 2.37266 0.892036 2.45055 0.891895 2.52843C0.891616 2.65174 0.891004 2.77503 0.890281 2.89834C0.888231 3.24895 0.886357 3.59955 0.885752 3.95016C0.885359 4.16458 0.884213 4.37898 0.882576 4.59339C0.882095 4.67507 0.881895 4.75676 0.881982 4.83844C0.882074 4.95281 0.881208 5.06713 0.880126 5.18149C0.880384 5.21516 0.880641 5.24884 0.880907 5.28353C0.877644 5.49376 0.842715 5.61426 0.703171 5.78127C0.591103 5.8596 0.508366 5.8698 0.373582 5.85695C0.344628 5.85488 0.315674 5.85282 0.285844 5.85069C0.147359 5.80422 0.0901816 5.74011 4.64339e-05 5.62502C-0.028378 5.49896 -0.0258615 5.37565 -0.0239862 5.24687C-0.0242029 5.20899 -0.0244197 5.17111 -0.024643 5.13208C-0.0251041 5.00691 -0.0241549 4.8818 -0.0231469 4.75664C-0.0230801 4.6694 -0.0230827 4.58216 -0.0231517 4.49492C-0.0230871 4.31198 -0.0223564 4.12906 -0.0211251 3.94612C-0.0195797 3.71237 -0.0194041 3.47864 -0.0196979 3.24488C-0.0198182 3.06462 -0.0193428 2.88436 -0.0186772 2.7041C-0.0184036 2.61796 -0.0182804 2.53183 -0.0183136 2.44569C-0.0182428 2.32482 -0.0174029 2.20398 -0.0163568 2.08312C-0.0164712 2.04794 -0.0165857 2.01276 -0.0167037 1.97651C-0.00912281 1.40453 0.237862 0.937738 0.63176 0.535294C0.954301 0.227009 1.3915 -0.00254122 1.84699 -0.00599623Z" fill="currentColor"/>
<path d="M19.6265 14.1431C19.6554 14.1452 19.6844 14.1472 19.7142 14.1493C19.8527 14.1958 19.9099 14.2599 20 14.375C20.0284 14.5011 20.0259 14.6244 20.024 14.7532C20.0243 14.791 20.0245 14.8289 20.0247 14.868C20.0252 14.9931 20.0242 15.1182 20.0232 15.2434C20.0231 15.3306 20.0231 15.4179 20.0232 15.5051C20.0231 15.6881 20.0224 15.871 20.0212 16.0539C20.0196 16.2877 20.0195 16.5214 20.0198 16.7552C20.0199 16.9354 20.0194 17.1157 20.0187 17.2959C20.0185 17.3821 20.0183 17.4682 20.0184 17.5543C20.0183 17.6752 20.0175 17.7961 20.0164 17.9169C20.0165 17.9521 20.0166 17.9873 20.0168 18.0235C20.0092 18.5954 19.7623 19.0631 19.3677 19.4649C18.8049 20.005 18.1462 20.0299 17.4069 20.026C17.3198 20.0261 17.2326 20.0263 17.1455 20.0265C16.9641 20.0268 16.7827 20.0264 16.6012 20.0255C16.3688 20.0244 16.1364 20.025 15.9039 20.0262C15.7245 20.0269 15.5451 20.0267 15.3657 20.0262C15.2799 20.026 15.1942 20.0262 15.1084 20.0266C14.9889 20.0271 14.8695 20.0264 14.7501 20.0253C14.7148 20.0257 14.6795 20.0261 14.6432 20.0265C14.4685 20.0235 14.3975 20.0177 14.256 19.9063C14.1446 19.7579 14.1239 19.6362 14.1406 19.4531C14.2199 19.2917 14.2878 19.2078 14.4531 19.1406C14.5292 19.1309 14.5292 19.1309 14.6102 19.1308C14.6565 19.1305 14.6565 19.1305 14.7037 19.1302C14.7373 19.1303 14.7708 19.1305 14.8053 19.1307C14.8409 19.1305 14.8765 19.1304 14.9132 19.1302C14.9904 19.13 15.0677 19.1299 15.145 19.1299C15.2675 19.13 15.39 19.1295 15.5126 19.1288C15.8609 19.127 16.2093 19.126 16.5577 19.1258C16.7709 19.1256 16.9841 19.1246 17.1973 19.1232C17.2783 19.1228 17.3593 19.1227 17.4403 19.123C17.5541 19.1232 17.6678 19.1225 17.7816 19.1217C17.8146 19.122 17.8477 19.1223 17.8817 19.1226C18.2351 19.1178 18.5398 18.9947 18.7985 18.7528C19.0363 18.4728 19.1073 18.1716 19.1071 17.8138C19.1073 17.7601 19.1073 17.7601 19.1075 17.7053C19.1078 17.6274 19.108 17.5495 19.1082 17.4716C19.1084 17.3483 19.1091 17.225 19.1098 17.1017C19.1118 16.7511 19.1137 16.4005 19.1143 16.0499C19.1147 15.8355 19.1158 15.6211 19.1175 15.4067C19.118 15.325 19.1182 15.2433 19.1181 15.1616C19.118 15.0472 19.1188 14.9329 19.1199 14.8185C19.1195 14.768 19.1195 14.768 19.1192 14.7165C19.1224 14.5063 19.1573 14.3858 19.2969 14.2188C19.409 14.1404 19.4917 14.1302 19.6265 14.1431Z" fill="currentColor"/>
<path d="M0.546829 14.1406C0.702707 14.2245 0.79365 14.2888 0.859329 14.4531C0.869116 14.5292 0.869116 14.5292 0.869156 14.6102C0.869366 14.641 0.869576 14.6719 0.869793 14.7037C0.869551 14.754 0.869551 14.754 0.869305 14.8053C0.869446 14.8409 0.869588 14.8765 0.869733 14.9132C0.870003 14.9904 0.870101 15.0677 0.870048 15.1449C0.87001 15.2675 0.870516 15.39 0.87118 15.5125C0.872986 15.8609 0.873948 16.2093 0.874207 16.5577C0.874403 16.7709 0.875354 16.9841 0.876759 17.1972C0.87714 17.2783 0.877233 17.3593 0.877025 17.4403C0.876747 17.554 0.877428 17.6678 0.878308 17.7815C0.877988 17.8146 0.877669 17.8476 0.87734 17.8817C0.882165 18.2351 1.00524 18.5398 1.24721 18.7985C1.5272 19.0362 1.82839 19.1073 2.18613 19.1071C2.22196 19.1072 2.2578 19.1074 2.29472 19.1075C2.3726 19.1078 2.45049 19.108 2.52837 19.1081C2.65167 19.1084 2.77497 19.109 2.89828 19.1098C3.24888 19.1118 3.59949 19.1137 3.9501 19.1143C4.16452 19.1147 4.37892 19.1158 4.59332 19.1175C4.67501 19.1179 4.75669 19.1181 4.83838 19.1181C4.95275 19.118 5.06707 19.1188 5.18143 19.1199C5.23194 19.1195 5.23194 19.1195 5.28347 19.1191C5.4937 19.1224 5.6142 19.1573 5.7812 19.2969C5.85954 19.4089 5.86974 19.4917 5.85689 19.6265C5.85482 19.6554 5.85276 19.6844 5.85063 19.7142C5.80416 19.8527 5.74005 19.9099 5.62495 20C5.4989 20.0284 5.37559 20.0259 5.24681 20.024C5.18999 20.0243 5.18999 20.0243 5.13202 20.0247C5.00685 20.0251 4.88174 20.0242 4.75658 20.0232C4.66934 20.0231 4.5821 20.0231 4.49486 20.0232C4.31192 20.0231 4.12899 20.0224 3.94606 20.0212C3.71231 20.0196 3.47858 20.0194 3.24482 20.0197C3.06456 20.0199 2.8843 20.0194 2.70404 20.0187C2.6179 20.0184 2.53176 20.0183 2.44563 20.0184C2.32476 20.0183 2.20392 20.0174 2.08306 20.0164C2.04788 20.0165 2.0127 20.0166 1.97645 20.0167C1.42436 20.0094 0.954311 19.7672 0.558121 19.3912C0.242218 19.058 -0.00249181 18.6231 -0.00605726 18.153C-0.00639322 18.1199 -0.00672917 18.0868 -0.00707531 18.0527C-0.00724171 18.0166 -0.00740812 17.9806 -0.00757957 17.9435C-0.007899 17.9053 -0.00821843 17.8671 -0.00854754 17.8278C-0.00951634 17.7015 -0.0101629 17.5752 -0.0107267 17.4489C-0.0109346 17.4057 -0.0111426 17.3626 -0.0113569 17.3181C-0.0124 17.09 -0.0131573 16.8618 -0.0137212 16.6336C-0.0142432 16.4447 -0.0153329 16.2557 -0.0169256 16.0668C-0.0188484 15.8386 -0.0198192 15.6105 -0.0200973 15.3824C-0.02036 15.2954 -0.0209558 15.2085 -0.0218899 15.1215C-0.0231219 14.9999 -0.0231284 14.8784 -0.0228384 14.7569C-0.0234792 14.7209 -0.02412 14.685 -0.0247803 14.6479C-0.0230682 14.4728 -0.0182663 14.3986 0.091711 14.2559C0.244042 14.1438 0.360566 14.1224 0.546829 14.1406Z" fill="currentColor"/>
</g>
<defs>
<clipPath id="clip0_17_4631">
<rect width="20" height="20" fill="white"/>
</clipPath>
</defs>
</svg>
