<svg width="24" height="24" viewBox="0 0 24 24" fill="none" xmlns="http://www.w3.org/2000/svg">
<g clip-path="url(#clip0_4_1676)">
<path d="M7.58672 -0.0128694C7.69329 -0.0130736 7.79986 -0.0133166 7.90644 -0.0135954C8.19409 -0.0142195 8.48175 -0.0142506 8.76941 -0.0141315C9.0105 -0.0140811 9.2516 -0.0143109 9.4927 -0.0145349C10.0946 -0.0150833 10.6965 -0.0150451 11.2984 -0.0147431C11.8187 -0.0145012 12.3391 -0.0150278 12.8594 -0.0159196C13.3961 -0.0168321 13.9327 -0.0172006 14.4694 -0.0170388C14.7697 -0.0169543 15.0701 -0.0170726 15.3704 -0.0177286C15.6532 -0.0183232 15.936 -0.0182224 16.2188 -0.0176156C16.3218 -0.0175058 16.4248 -0.0176289 16.5278 -0.0180198C17.3602 -0.020948 18.1862 0.0349014 18.9902 0.266607C19.0324 0.278522 19.0747 0.290437 19.1181 0.302713C20.8565 0.812223 22.2861 1.93163 23.1606 3.52295C23.7956 4.76919 24.0233 6.10525 24.0203 7.49231C24.0205 7.58155 24.0208 7.67079 24.0211 7.76003C24.0215 7.94477 24.0214 8.12949 24.0209 8.31423C24.0204 8.55038 24.0213 8.7865 24.0227 9.02264C24.0235 9.20594 24.0235 9.38923 24.0233 9.57252C24.0233 9.65965 24.0235 9.74677 24.0241 9.8339C24.0248 9.95521 24.0243 10.0765 24.0235 10.1978C24.024 10.2332 24.0244 10.2686 24.0249 10.3051C24.0205 10.6232 23.908 10.817 23.6924 11.0537C23.4709 11.2231 23.1845 11.2566 22.9122 11.246C22.6459 11.1987 22.4308 11.0383 22.2656 10.8281C22.1545 10.5729 22.1045 10.3608 22.107 10.0812C22.1066 10.0285 22.1066 10.0285 22.1062 9.97476C22.1057 9.89906 22.1056 9.82335 22.1057 9.74765C22.106 9.62685 22.1053 9.50607 22.1044 9.38527C22.1027 9.12794 22.1021 8.87062 22.1016 8.61329C22.101 8.31657 22.0999 8.01987 22.0978 7.72316C22.0972 7.60592 22.0974 7.48871 22.0976 7.37147C22.0926 5.88781 21.7065 4.41687 20.6647 3.31385C19.669 2.3714 18.2529 1.91392 16.8989 1.9153C16.8556 1.91516 16.8122 1.91502 16.7676 1.91488C16.6231 1.91447 16.4787 1.9144 16.3342 1.91433C16.2303 1.91411 16.1264 1.91387 16.0225 1.91362C15.7407 1.91301 15.4588 1.9127 15.1769 1.9125C15.0005 1.91236 14.8241 1.91217 14.6477 1.91196C14.158 1.91139 13.6683 1.9109 13.1787 1.91074C13.1474 1.91073 13.1161 1.91072 13.0838 1.91071C13.0525 1.9107 13.0211 1.91069 12.9888 1.91068C12.9253 1.91066 12.8617 1.91064 12.7982 1.91062C12.7667 1.91061 12.7352 1.9106 12.7027 1.91059C12.1932 1.9104 11.6836 1.90959 11.1741 1.90849C10.6494 1.90738 10.1248 1.90681 9.60008 1.90674C9.30613 1.90669 9.01218 1.90642 8.71823 1.90558C8.44125 1.9048 8.16427 1.90471 7.88729 1.90512C7.7863 1.90515 7.68531 1.90495 7.58432 1.90449C6.1891 1.89841 4.76334 2.13156 3.65625 3.04688C3.61643 3.07909 3.57661 3.11129 3.53558 3.14448C2.50098 4.02381 2.0356 5.38383 1.92187 6.70313C1.91569 6.85274 1.91513 7.00211 1.91529 7.15183C1.91515 7.19501 1.91501 7.2382 1.91487 7.28269C1.91446 7.42635 1.91439 7.57001 1.91432 7.71367C1.9141 7.81712 1.91387 7.92057 1.91361 8.02402C1.913 8.30442 1.9127 8.58482 1.91249 8.86523C1.91235 9.04077 1.91216 9.21631 1.91195 9.39185C1.91138 9.87914 1.91089 10.3664 1.91074 10.8537C1.91072 10.8849 1.91071 10.916 1.9107 10.9481C1.91069 10.9793 1.91068 11.0104 1.91067 11.0426C1.91065 11.1058 1.91063 11.169 1.91061 11.2322C1.91059 11.2792 1.91059 11.2792 1.91058 11.3272C1.91039 11.8341 1.90958 12.3411 1.90848 12.848C1.90737 13.3702 1.9068 13.8923 1.90673 14.4144C1.90668 14.7069 1.90641 14.9994 1.90557 15.2919C1.90479 15.5674 1.9047 15.843 1.90511 16.1186C1.90514 16.219 1.90495 16.3195 1.90448 16.4199C1.89838 17.8136 2.13276 19.2381 3.04687 20.3438C3.09518 20.4035 3.09518 20.4035 3.14447 20.4644C4.02387 21.4991 5.38377 21.9643 6.70312 22.0781C6.85203 22.0843 7.0007 22.0849 7.14972 22.0847C7.21416 22.0849 7.21416 22.0849 7.2799 22.0851C7.42281 22.0855 7.56571 22.0856 7.70861 22.0857C7.81152 22.0859 7.91443 22.0861 8.01735 22.0864C8.2963 22.087 8.57526 22.0873 8.85421 22.0875C9.02887 22.0877 9.20353 22.0878 9.3782 22.0881C9.92576 22.0887 10.4733 22.0891 11.0209 22.0893C11.0838 22.0893 11.1467 22.0894 11.2096 22.0894C11.2408 22.0894 11.272 22.0894 11.3041 22.0894C11.8085 22.0896 12.3128 22.0904 12.8171 22.0915C13.3367 22.0926 13.8562 22.0932 14.3758 22.0933C14.6667 22.0933 14.9577 22.0936 15.2487 22.0944C15.5229 22.0952 15.7971 22.0953 16.0714 22.0949C16.1713 22.0949 16.2712 22.0951 16.3711 22.0955C17.7817 22.1017 19.2235 21.8794 20.3437 20.9531C20.4035 20.9048 20.4035 20.9048 20.4644 20.8555C21.4981 19.977 21.9659 18.6157 22.0781 17.2969C22.088 17.0997 22.0941 16.9024 22.0983 16.705C22.1103 16.3793 22.1604 16.1089 22.3769 15.8525C22.6341 15.6383 22.8509 15.5443 23.1841 15.5497C23.5006 15.5857 23.7045 15.7597 23.9002 15.9992C24.2608 16.5369 23.9994 17.7438 23.8826 18.3545C23.6337 19.5779 23.1566 20.6916 22.3594 21.6563C22.3299 21.6924 22.3004 21.7285 22.27 21.7658C22.0836 21.9869 21.88 22.1766 21.6562 22.3594C21.5921 22.4129 21.5921 22.4129 21.5266 22.4676C20.0524 23.6547 18.2567 24.0152 16.4072 24.0129C16.3006 24.0131 16.1939 24.0133 16.0872 24.0136C15.7996 24.0142 15.5119 24.0143 15.2243 24.0141C14.9832 24.0141 14.7421 24.0143 14.501 24.0145C13.8992 24.0151 13.2974 24.0151 12.6956 24.0148C12.1752 24.0145 11.6548 24.015 11.1344 24.0159C10.5977 24.0168 10.061 24.0172 9.52428 24.017C9.22392 24.017 8.92355 24.0171 8.62319 24.0177C8.34047 24.0183 8.05775 24.0182 7.77503 24.0176C7.67202 24.0175 7.56901 24.0176 7.46599 24.018C6.66671 24.0208 5.8859 23.9571 5.10937 23.7568C5.05247 23.7423 5.05247 23.7423 4.99443 23.7274C3.97978 23.4547 3.09959 22.9832 2.29687 22.3125C2.2463 22.2719 2.2463 22.2719 2.1947 22.2305C1.98544 22.0593 1.81175 21.865 1.64062 21.6563C1.58696 21.592 1.58696 21.592 1.53222 21.5264C0.34554 20.0524 -0.0152388 18.2572 -0.012878 16.408C-0.0130822 16.3014 -0.0133253 16.1948 -0.013604 16.0882C-0.0142277 15.8008 -0.0142596 15.5133 -0.0141405 15.2258C-0.01409 14.9849 -0.0143193 14.7439 -0.0145432 14.5029C-0.0150915 13.9013 -0.0150541 13.2998 -0.014752 12.6982C-0.01451 12.1781 -0.015037 11.6581 -0.0159286 11.138C-0.0168411 10.6016 -0.0172091 10.0652 -0.0170473 9.5287C-0.0169628 9.22852 -0.0170814 8.92834 -0.0177375 8.62815C-0.0183321 8.34555 -0.0182313 8.06295 -0.0176245 7.78034C-0.0175147 7.67742 -0.0176377 7.57451 -0.0180286 7.47159C-0.0253563 5.39012 0.551068 3.44161 2.03027 1.9336C2.34361 1.62311 2.67376 1.3597 3.04687 1.12501C3.07517 1.10703 3.10346 1.08905 3.13261 1.07053C4.48567 0.225134 6.01911 -0.0148672 7.58672 -0.0128694Z" fill="currentColor"/>
<path d="M12.557 5.55907C12.7822 5.70866 12.9304 5.92386 12.9844 6.18749C12.9886 6.25549 12.9905 6.32366 12.9907 6.3918C12.9909 6.4326 12.9911 6.4734 12.9913 6.51543C12.9913 6.56004 12.9913 6.60466 12.9913 6.65062C12.9914 6.69818 12.9916 6.74574 12.9918 6.79474C12.9923 6.95458 12.9925 7.11442 12.9927 7.27426C12.993 7.38868 12.9933 7.50309 12.9936 7.6175C12.9945 7.96114 12.995 8.30478 12.9954 8.64843C12.9956 8.81032 12.9959 8.97222 12.9961 9.13411C12.9969 9.67238 12.9976 10.2107 12.9979 10.7489C12.998 10.8886 12.9981 11.0282 12.9982 11.1678C12.9982 11.2025 12.9983 11.2372 12.9983 11.273C12.9987 11.8351 12.9999 12.3973 13.0014 12.9595C13.0029 13.5368 13.0038 14.1142 13.0039 14.6916C13.004 15.0157 13.0044 15.3398 13.0056 15.6639C13.0068 15.9687 13.0069 16.2736 13.0064 16.5785C13.0064 16.6903 13.0067 16.8022 13.0074 16.9141C13.0082 17.0669 13.0079 17.2196 13.0072 17.3724C13.0078 17.4166 13.0083 17.4608 13.0088 17.5063C13.0058 17.8149 12.9471 18.0761 12.729 18.3059C12.4558 18.5434 12.2566 18.5818 11.9017 18.5737C11.5774 18.547 11.4242 18.3725 11.2227 18.1377C11.1191 17.996 11.1035 17.8764 11.1031 17.7062C11.1028 17.6447 11.1028 17.6447 11.1024 17.5819C11.1025 17.5368 11.1025 17.4917 11.1025 17.4452C11.1023 17.3973 11.1021 17.3494 11.102 17.3C11.1014 17.1387 11.1013 16.9775 11.1011 16.8162C11.1008 16.7008 11.1005 16.5855 11.1001 16.4702C11.0992 16.1235 11.0987 15.7769 11.0983 15.4302C11.0981 15.267 11.0979 15.1037 11.0976 14.9404C11.0968 14.3976 11.0961 13.8548 11.0958 13.312C11.0957 13.1711 11.0956 13.0303 11.0955 12.8894C11.0955 12.8544 11.0955 12.8194 11.0955 12.7833C11.0951 12.2163 11.0939 11.6493 11.0924 11.0823C11.0908 10.5 11.09 9.91777 11.0898 9.33552C11.0897 9.00865 11.0893 8.68178 11.0881 8.35491C11.087 8.04738 11.0868 7.73987 11.0873 7.43234C11.0873 7.31949 11.087 7.20664 11.0864 7.09379C11.0856 6.93966 11.0859 6.78557 11.0865 6.63143C11.086 6.58684 11.0855 6.54225 11.085 6.49631C11.088 6.18526 11.1484 5.93006 11.3614 5.69413C11.7147 5.37584 12.1442 5.35908 12.557 5.55907Z" fill="currentColor"/>
<path d="M7.42273 9.17855C7.65137 9.3438 7.76452 9.57409 7.82813 9.84377C7.84899 10.0998 7.84738 10.3553 7.84632 10.6119C7.84651 10.6899 7.84676 10.7678 7.84707 10.8458C7.84771 11.0567 7.84746 11.2676 7.84702 11.4786C7.84666 11.6997 7.84699 11.9209 7.84721 12.1421C7.84747 12.5134 7.84713 12.8847 7.84646 13.2561C7.8457 13.6849 7.84594 14.1137 7.84672 14.5425C7.84736 14.9112 7.84745 15.2799 7.84708 15.6486C7.84686 15.8686 7.84683 16.0886 7.84729 16.3086C7.8477 16.5154 7.84742 16.7222 7.84661 16.9291C7.84642 17.0048 7.84647 17.0805 7.84678 17.1563C7.84987 17.983 7.84987 17.983 7.5791 18.3428C7.36379 18.5581 7.19748 18.6182 6.89649 18.6299C6.57353 18.6211 6.35996 18.5407 6.12598 18.3194C5.86952 17.8919 5.88676 17.4603 5.89013 16.98C5.89017 16.9008 5.89015 16.8215 5.89008 16.7422C5.89009 16.5279 5.89102 16.3136 5.8922 16.0992C5.89312 15.92 5.89365 15.7407 5.89419 15.5614C5.89551 15.1384 5.89764 14.7153 5.90022 14.2923C5.90286 13.8565 5.90393 13.4208 5.90427 12.9851C5.90463 12.6102 5.90606 12.2353 5.90834 11.8605C5.90967 11.6369 5.91058 11.4134 5.91041 11.1898C5.91029 10.9796 5.91151 10.7694 5.91376 10.5591C5.91435 10.4822 5.91448 10.4053 5.91408 10.3284C5.91239 9.94544 5.91217 9.6274 6.15733 9.31079C6.5005 8.97054 7.01025 8.93695 7.42273 9.17855Z" fill="currentColor"/>
<path d="M17.7656 13.3125C17.9869 13.5315 18.0517 13.7045 18.0553 14.0154C18.0555 14.0538 18.0557 14.0922 18.0559 14.1317C18.0565 14.1925 18.0565 14.1925 18.0571 14.2546C18.0582 14.389 18.059 14.5234 18.0597 14.6578C18.0599 14.7037 18.0602 14.7497 18.0605 14.797C18.0617 15.0403 18.0626 15.2836 18.0633 15.5268C18.0639 15.7279 18.0652 15.929 18.0671 16.1301C18.0694 16.3731 18.0706 16.6161 18.0709 16.8591C18.0713 16.9516 18.072 17.044 18.0731 17.1365C18.0746 17.2662 18.0746 17.3958 18.0742 17.5255C18.075 17.5634 18.0758 17.6013 18.0766 17.6403C18.0735 17.921 17.9907 18.1112 17.8125 18.3281C17.6003 18.5243 17.4192 18.5786 17.1299 18.5889C16.7811 18.574 16.6166 18.4917 16.3682 18.2432C16.1834 17.9739 16.1579 17.7016 16.159 17.3822C16.1588 17.3454 16.1585 17.3085 16.1583 17.2705C16.1576 17.1496 16.1577 17.0286 16.1578 16.9076C16.1576 16.8229 16.1574 16.7382 16.1572 16.6535C16.1568 16.4763 16.1568 16.2991 16.1571 16.1218C16.1574 15.8956 16.1566 15.6693 16.1555 15.443C16.1548 15.2682 16.1547 15.0933 16.1549 14.9185C16.1549 14.8351 16.1546 14.7517 16.1541 14.6683C16.1494 13.7124 16.1494 13.7124 16.3967 13.3903C16.8379 13.0295 17.2948 12.9775 17.7656 13.3125Z" fill="currentColor"/>
</g>
<defs>
<clipPath id="clip0_4_1676">
<rect width="24" height="24" fill="white"/>
</clipPath>
</defs>
</svg>
