<svg width="24" height="24" viewBox="0 0 24 24" fill="none" xmlns="http://www.w3.org/2000/svg">
<path d="M11.4139 0.0328388C9.52948 0.290651 8.15136 1.52346 7.66386 3.38909C7.49042 4.06409 7.35917 4.12971 6.62323 3.90471C6.25292 3.7969 6.13104 3.78284 5.46073 3.77815C4.60292 3.77346 4.30761 3.82971 3.67011 4.12503C2.70917 4.57034 1.97792 5.29221 1.49979 6.25784C0.941982 7.39221 0.852919 8.54065 1.23729 9.67034C1.44823 10.2891 1.76698 10.7907 2.29667 11.3532C2.69042 11.775 2.74198 11.8453 2.74198 12C2.74198 12.1547 2.69511 12.225 2.29667 12.6422C1.76698 13.2 1.45292 13.7063 1.23729 14.3297C0.852919 15.4594 0.941982 16.6078 1.49979 17.7422C2.15604 19.0688 3.35604 19.9782 4.75292 20.2078C5.24511 20.2828 6.06542 20.2407 6.53886 20.1047C7.37323 19.875 7.48573 19.9266 7.66386 20.611C8.18886 22.6219 9.73104 23.8828 11.7889 23.986C13.0732 24.0516 14.2685 23.6063 15.1404 22.7344C15.7545 22.1297 16.1576 21.3985 16.3451 20.5688C16.4014 20.3203 16.4576 20.1891 16.556 20.0953C16.7154 19.936 16.856 19.936 17.4607 20.1047C17.9342 20.2407 18.7545 20.2828 19.2467 20.2078C20.6435 19.9782 21.8435 19.0688 22.4998 17.7422C23.0529 16.6172 23.142 15.45 22.7623 14.3297C22.5514 13.711 22.2326 13.2047 21.7029 12.6469C21.2998 12.2157 21.2576 12.1547 21.2576 11.9953C21.2576 11.8313 21.2951 11.775 21.5904 11.475C22.2326 10.8188 22.5373 10.3407 22.7764 9.62815C23.3998 7.7719 22.631 5.60628 20.9389 4.45784C20.6201 4.24221 20.006 3.96565 19.617 3.86253C19.3592 3.79221 19.1295 3.77346 18.5389 3.77815C17.8685 3.78284 17.7467 3.7969 17.3764 3.90471C16.6404 4.12971 16.5092 4.06409 16.3357 3.38909C15.8623 1.57503 14.5873 0.384401 12.7779 0.0703392C12.3935 0.00471497 11.7514 -0.0140362 11.4139 0.0328388ZM12.5717 2.06721C13.0029 2.15628 13.4014 2.38128 13.7389 2.71409C14.0951 3.07034 14.2873 3.43128 14.4326 4.0219C14.5545 4.51409 14.6576 4.73909 14.9014 5.06253C15.2482 5.51721 15.7545 5.84065 16.3451 5.98128C16.7482 6.07503 17.2217 6.04221 17.7607 5.88284C18.717 5.60159 19.556 5.80315 20.2264 6.48753C20.9248 7.19534 21.1592 8.1469 20.8592 9.02815C20.7279 9.40315 20.517 9.71253 20.081 10.1532C19.4998 10.7391 19.2654 11.2688 19.2654 12C19.2654 12.7313 19.4998 13.261 20.081 13.8469C20.7654 14.5407 20.967 14.9672 20.967 15.7266C20.967 16.275 20.8451 16.6875 20.5592 17.1235C19.9264 18.075 18.8764 18.4453 17.7607 18.1172C16.7951 17.8313 16.031 17.9532 15.2904 18.525C14.9764 18.7688 14.6248 19.2938 14.5123 19.6875C14.2264 20.7141 14.0857 20.9907 13.6451 21.3844C12.9139 22.0407 11.7654 22.1766 10.8279 21.7125C10.5092 21.5578 10.0029 21.061 9.82948 20.7375C9.75917 20.6016 9.65136 20.2875 9.58105 20.0344C9.43573 19.4672 9.34667 19.2703 9.09823 18.9328C8.61542 18.2907 7.78104 17.9063 6.98417 17.9719C6.79198 17.986 6.45448 18.0516 6.23886 18.1172C5.28261 18.3985 4.44354 18.1969 3.77323 17.5125C2.92479 16.65 2.77011 15.3985 3.39354 14.461C3.47792 14.3344 3.71698 14.0578 3.91854 13.8516C4.49511 13.2657 4.73417 12.7219 4.73417 12C4.73417 11.2782 4.49511 10.7344 3.91854 10.1485C3.71698 9.94221 3.47792 9.66565 3.39354 9.53909C2.77011 8.60159 2.92479 7.35003 3.77323 6.48753C4.44354 5.80315 5.28261 5.60159 6.23886 5.88284C7.32167 6.20628 8.22167 5.99065 8.92479 5.25003C9.27636 4.87503 9.42167 4.58909 9.58573 3.96565C9.73573 3.37034 9.89042 3.09378 10.2654 2.71878C10.5795 2.40471 10.9264 2.19846 11.3295 2.08596C11.6107 2.00628 12.2435 1.9969 12.5717 2.06721Z" fill="currentColor"/>
<path d="M11.1795 8.08125C10.6826 8.19844 10.2045 8.40469 9.79199 8.68125C7.42012 10.2656 7.42012 13.7344 9.79668 15.3234C10.4764 15.7781 11.1748 15.9844 12.0186 15.9844C15.192 15.9797 17.0764 12.4312 15.3092 9.77812C14.8123 9.03281 14.1045 8.49375 13.2279 8.20312C12.8154 8.0625 12.7123 8.04844 12.117 8.03437C11.6717 8.02031 11.3717 8.03906 11.1795 8.08125ZM12.6842 10.1297C13.7951 10.5469 14.2967 11.7844 13.7857 12.8672C13.4295 13.6312 12.5389 14.1047 11.7139 13.9734C10.6217 13.7953 9.85762 12.7687 10.0264 11.7141C10.1951 10.6641 11.1279 9.92344 12.1639 10.0172C12.3186 10.0312 12.5529 10.0828 12.6842 10.1297Z" fill="currentColor"/>
</svg>
