<svg width="24" height="24" viewBox="0 0 24 24" fill="none" xmlns="http://www.w3.org/2000/svg">
<g clip-path="url(#clip0_4_1670)">
<path d="M2.33789 6.26954C2.53758 6.41332 2.67021 6.57048 2.76562 6.79688C2.80988 7.10623 2.77892 7.36003 2.64843 7.64356C2.49474 7.97759 2.47152 8.28445 2.58398 8.63673C2.72433 8.95203 2.93165 9.13282 3.21972 9.31641C3.98681 9.8126 4.39487 10.4839 4.62103 11.3551C4.7022 11.8907 4.67866 12.473 4.49999 12.9844C4.48694 13.0245 4.47389 13.0646 4.46044 13.106C4.35023 13.4138 4.18443 13.6649 3.98437 13.9219C3.95748 13.9571 3.93059 13.9923 3.90289 14.0286C3.69501 14.2819 3.45791 14.465 3.18803 14.6467C2.8485 14.8763 2.56795 15.1462 2.48437 15.5625C2.42085 16.0977 2.70413 16.5318 2.9707 16.9746C2.99656 17.0185 3.02242 17.0625 3.04907 17.1077C3.19071 17.3455 3.33891 17.57 3.51189 17.7861C3.56249 17.8594 3.56249 17.8594 3.56249 17.9531C3.94461 18.1513 4.33014 18.3245 4.75854 18.2001C4.99289 18.1181 5.22048 18.0202 5.44921 17.9238C6.2833 17.5734 7.19155 17.5902 8.0332 17.918C8.30156 18.0396 8.53453 18.1931 8.76562 18.375C8.80127 18.4024 8.83692 18.4298 8.87365 18.458C9.45261 18.9337 9.8594 19.6582 9.95062 20.4042C9.96412 20.5548 9.97609 20.7054 9.98602 20.8563C10.0196 21.2474 10.1513 21.5382 10.4531 21.7969C10.6811 21.9733 10.8742 22.026 11.1504 22.0752C11.5442 22.1552 11.8407 22.2403 12.0937 22.5703C12.2371 22.8292 12.2365 23.1043 12.1875 23.3906C12.0783 23.656 11.9269 23.8259 11.6723 23.9633C11.4999 24.0305 11.3303 24.0257 11.1475 24.0205C11.108 24.0198 11.0686 24.019 11.0279 24.0182C10.252 23.9938 9.45891 23.6649 8.90624 23.1094C8.34838 22.4758 8.04694 21.8159 7.9746 20.9736C7.93685 20.5523 7.85823 20.241 7.55859 19.9277C7.18731 19.685 6.87127 19.5746 6.42187 19.6406C6.22691 19.7039 6.04472 19.788 5.85937 19.875C4.96366 20.2613 4.0341 20.2243 3.14062 19.875C2.30922 19.5091 1.81217 18.8716 1.37695 18.0996C1.34746 18.0483 1.31797 17.997 1.28759 17.9442C0.700213 16.9144 0.394195 16.0415 0.703119 14.8594C0.933806 14.135 1.43096 13.5266 2.07128 13.1221C2.41243 12.9041 2.66806 12.6274 2.79199 12.2355C2.87077 11.8711 2.7945 11.5778 2.62499 11.25C2.46258 10.999 2.26066 10.8819 2.00811 10.7267C1.34724 10.2994 0.847811 9.56947 0.6784 8.79951C0.577518 8.00495 0.591643 7.14326 1.07812 6.46876C1.41726 6.12045 1.90563 6.04276 2.33789 6.26954Z" fill="currentColor"/>
<path d="M11.3701 -0.0186687C11.4512 -0.0188705 11.4512 -0.0188705 11.5339 -0.0190763C11.6474 -0.0191714 11.7608 -0.0189167 11.8743 -0.0183253C12.0464 -0.0175719 12.2186 -0.0183205 12.3907 -0.019218C12.5017 -0.019125 12.6127 -0.0189448 12.7236 -0.0186687C12.7743 -0.0189533 12.825 -0.019238 12.8773 -0.0195312C13.6622 -0.0124039 14.3681 0.274261 14.9531 0.796883C14.9853 0.825222 15.0174 0.853562 15.0505 0.88276C15.6052 1.40252 15.9332 2.12038 16.004 2.87238C16.0076 2.90914 16.0111 2.94591 16.0148 2.98378C16.0217 3.05715 16.0278 3.1306 16.0331 3.2041C16.0639 3.54509 16.1745 3.84269 16.4414 4.06934C16.7508 4.31846 17.0341 4.38914 17.4307 4.37916C17.6881 4.34464 17.9075 4.23441 18.1406 4.12501C18.9481 3.77677 19.8902 3.73975 20.7131 4.06621C21.2011 4.27226 21.5721 4.54107 21.9375 4.92188C21.9673 4.95191 21.9972 4.98195 22.028 5.01289C22.2486 5.2495 22.4121 5.5365 22.4268 5.86524C22.3898 6.19221 22.2631 6.42438 22.0312 6.65626C21.7611 6.81835 21.4983 6.83591 21.1875 6.79688C20.8651 6.70741 20.6878 6.48664 20.4844 6.23438C20.2445 5.96374 19.9548 5.79735 19.5934 5.75446C19.2899 5.74383 19.0709 5.83137 18.7969 5.95313C17.8778 6.33229 16.9251 6.43869 15.9826 6.05487C15.5664 5.86827 15.2251 5.6248 14.9062 5.29688C14.8731 5.26474 14.84 5.23259 14.8059 5.19947C14.3089 4.6873 14.0858 4.02396 14.0186 3.32813C13.9678 2.82266 13.8773 2.48932 13.4863 2.14179C13.1788 1.94968 12.8612 1.90024 12.5043 1.90156C12.4645 1.90131 12.4247 1.90107 12.3837 1.90081C12.3001 1.90051 12.2165 1.90057 12.1329 1.90097C12.0065 1.90137 11.8801 1.90002 11.7537 1.89854C11.2576 1.89655 10.8464 1.92705 10.4121 2.19141C10.0983 2.52372 10.0336 2.83259 9.98437 3.28126C9.88632 4.17573 9.5556 4.98793 8.84491 5.57356C8.08819 6.12687 7.20811 6.38934 6.27232 6.26794C5.73511 6.17804 5.14059 6.01347 4.79297 5.56641C4.62631 5.31543 4.6096 5.07573 4.64062 4.78126C4.72475 4.50339 4.87408 4.33515 5.10937 4.17188C5.40207 4.03564 5.69744 4.02079 6.00311 4.12904C6.09855 4.17121 6.19383 4.21375 6.28894 4.25666C6.67342 4.41818 7.02021 4.35713 7.40625 4.21876C7.67688 4.08812 7.8438 3.87988 7.96875 3.60938C8.05161 3.3632 8.08188 3.13055 8.10351 2.87403C8.19685 1.93903 8.62525 1.21655 9.34277 0.618172C9.95703 0.169548 10.6136 -0.022916 11.3701 -0.0186687Z" fill="currentColor"/>
<path d="M14.5342 8.84763C15.3976 9.57172 15.9411 10.4445 16.0781 11.5781C16.1613 12.6199 15.8995 13.6546 15.225 14.4681C15.1211 14.5853 15.0145 14.6992 14.9062 14.8125C14.8674 14.8565 14.8674 14.8565 14.8279 14.9015C14.1987 15.5899 13.1734 15.9561 12.2571 16.0006C11.0003 16.0337 9.93475 15.6492 9.01574 14.7852C8.24488 13.9873 7.88779 12.965 7.89989 11.8672C7.93783 10.7345 8.45509 9.76573 9.27135 8.99045C10.6992 7.7016 13.0367 7.68836 14.5342 8.84763ZM11.0625 10.125C11.0227 10.1443 10.983 10.1636 10.942 10.1836C10.4039 10.4732 10.08 10.927 9.9027 11.5038C9.75698 12.0846 9.8851 12.6349 10.1849 13.1468C10.4981 13.6077 10.9841 13.9449 11.5312 14.0625C12.1613 14.1588 12.675 14.0734 13.2187 13.7343C13.552 13.4885 13.7882 13.2162 13.9687 12.8437C13.9926 12.7965 13.9926 12.7965 14.0169 12.7483C14.2112 12.2835 14.1679 11.654 13.9865 11.1925C13.6949 10.606 13.228 10.2012 12.6094 9.98435C12.1125 9.84449 11.5193 9.89146 11.0625 10.125Z" fill="currentColor"/>
<path d="M21.6562 9.1875C21.9351 9.28359 22.1307 9.49122 22.2656 9.75C22.3449 10.0076 22.3512 10.2556 22.2422 10.5029C22.0984 10.7635 21.8644 10.9358 21.624 11.1035C21.3703 11.3367 21.2456 11.6469 21.2227 11.9854C21.2301 12.35 21.3549 12.6309 21.603 12.8961C21.7114 12.9917 21.8223 13.0626 21.9463 13.1367C22.6679 13.5748 23.1176 14.252 23.348 15.0551C23.6004 16.1157 23.2609 17.0373 22.7224 17.9438C22.6699 18.0323 22.618 18.1213 22.5663 18.2103C22.0129 19.1542 21.3345 19.8695 20.2568 20.1606C19.3566 20.3744 18.5148 20.1791 17.6917 19.7972C17.3986 19.6824 17.086 19.6804 16.7866 19.7789C16.4562 19.9354 16.2281 20.1357 16.0699 20.4672C16.0247 20.5969 16.0077 20.7203 15.9902 20.8564C15.9437 21.1766 15.826 21.4131 15.5814 21.6284C15.3323 21.7933 15.0381 21.8219 14.7471 21.7811C14.4058 21.6916 14.2165 21.4629 14.042 21.167C13.8998 20.5192 14.1871 19.7588 14.5313 19.2188C14.687 19.0152 14.8639 18.8351 15.0469 18.6562C15.0732 18.6285 15.0994 18.6007 15.1265 18.572C15.6635 18.0477 16.5366 17.8 17.2705 17.7891C17.8696 17.7966 18.4221 17.9525 18.9545 18.2217C19.241 18.3597 19.5544 18.3784 19.8609 18.2928C20.2219 18.1552 20.439 17.9842 20.6309 17.6455C20.6571 17.6004 20.6571 17.6004 20.6839 17.5543C20.722 17.4886 20.76 17.4228 20.7977 17.3569C20.8636 17.2426 20.9307 17.1291 20.998 17.0156C21.0446 16.9365 21.0911 16.8574 21.1377 16.7783C21.1709 16.7223 21.1709 16.7223 21.2048 16.6651C21.3969 16.3355 21.5207 16.0428 21.4688 15.6562C21.4182 15.4939 21.3539 15.3411 21.2812 15.1875C21.2608 15.1372 21.2608 15.1372 21.2399 15.0859C21.1736 14.9772 21.1156 14.9567 21 14.9062C20.169 14.3752 19.5895 13.6646 19.3401 12.6998C19.2941 12.4712 19.2876 12.2473 19.2891 12.0146C19.2893 11.9657 19.2896 11.9167 19.2899 11.8662C19.3094 11.0133 19.6603 10.2982 20.2535 9.68957C20.6925 9.28275 21.0614 9.13069 21.6562 9.1875Z" fill="currentColor"/>
</g>
<defs>
<clipPath id="clip0_4_1670">
<rect width="24" height="24" fill="white"/>
</clipPath>
</defs>
</svg>
