<svg width="20" height="20" viewBox="0 0 20 20" fill="none" xmlns="http://www.w3.org/2000/svg">
<path d="M4.16667 1.66669H15.8333C18.1308 1.66669 20 3.53585 20 5.83335V14.1667C20 16.4642 18.1308 18.3334 15.8333 18.3334H4.16667C1.86917 18.3334 0 16.4642 0 14.1667V5.83335C0 3.53585 1.86917 1.66669 4.16667 1.66669ZM18.3333 14.1667V5.83335C18.3333 4.45502 17.2117 3.33335 15.8333 3.33335H9.16667V16.6667H15.8333C17.2117 16.6667 18.3333 15.545 18.3333 14.1667ZM1.66667 14.1667C1.66667 15.545 2.78833 16.6667 4.16667 16.6667H7.5V3.33335H4.16667C2.78833 3.33335 1.66667 4.45502 1.66667 5.83335V14.1667ZM3.33333 9.16669C3.33333 9.62752 3.70667 10 4.16667 10H5C5.46 10 5.83333 9.62752 5.83333 9.16669C5.83333 8.70585 5.46 8.33335 5 8.33335H4.16667C3.70667 8.33335 3.33333 8.70585 3.33333 9.16669ZM3.33333 12.5C3.33333 12.9609 3.70667 13.3334 4.16667 13.3334H5C5.46 13.3334 5.83333 12.9609 5.83333 12.5C5.83333 12.0392 5.46 11.6667 5 11.6667H4.16667C3.70667 11.6667 3.33333 12.0392 3.33333 12.5ZM3.33333 5.83335C3.33333 6.29419 3.70667 6.66669 4.16667 6.66669H5C5.46 6.66669 5.83333 6.29419 5.83333 5.83335C5.83333 5.37252 5.46 5.00002 5 5.00002H4.16667C3.70667 5.00002 3.33333 5.37252 3.33333 5.83335Z" fill="#737373"/>
</svg>
