<svg width="24" height="24" viewBox="0 0 24 24" fill="none" xmlns="http://www.w3.org/2000/svg">
<path d="M6.78924 1.96226C6.83541 1.96212 6.88157 1.96199 6.92914 1.96184C7.08372 1.96144 7.2383 1.96136 7.39288 1.96129C7.50376 1.96108 7.61465 1.96084 7.72554 1.96059C8.05816 1.95991 8.39078 1.95963 8.7234 1.9594C8.88027 1.95928 9.03715 1.9591 9.19402 1.95892C9.71589 1.95835 10.2378 1.95787 10.7596 1.95771C10.8097 1.9577 10.8097 1.9577 10.8608 1.95768C10.9109 1.95766 10.9109 1.95766 10.9621 1.95765C11.0299 1.95763 11.0977 1.95761 11.1654 1.95759C11.1991 1.95758 11.2327 1.95757 11.2673 1.95755C11.8116 1.95737 12.3559 1.95655 12.9002 1.95546C13.4598 1.95435 14.0194 1.95376 14.579 1.95371C14.8929 1.95367 15.2067 1.95338 15.5206 1.95255C15.816 1.95177 16.1114 1.95167 16.4068 1.95208C16.515 1.95212 16.6231 1.95192 16.7313 1.95145C17.5488 1.94815 18.2535 1.96423 18.8821 2.55131C19.1154 2.78967 19.2772 3.06542 19.4448 3.35166C19.4791 3.40931 19.5134 3.46692 19.5478 3.52451C19.639 3.67742 19.7296 3.83073 19.8199 3.98413C19.912 4.14021 20.0046 4.29598 20.0972 4.45176C20.2092 4.64025 20.3211 4.82877 20.4327 5.01746C20.6666 5.41252 20.9035 5.80565 21.1426 6.19752C21.3728 6.57465 21.6028 6.95169 21.8207 7.33603C21.8458 7.37981 21.8458 7.37981 21.8713 7.42447C22.1596 7.94113 22.0325 8.54461 21.8911 9.09385C21.7677 9.48868 21.6025 10.0014 21.2967 10.2942C20.9603 10.6404 21.0027 11.0391 21.0087 11.4894C21.0087 11.5754 21.0084 11.6615 21.0081 11.7475C21.0077 11.9322 21.0083 12.1169 21.0097 12.3016C21.0118 12.594 21.0117 12.8864 21.0112 13.1787C21.0106 13.6941 21.0121 14.2094 21.014 14.7248C21.0168 15.5002 21.0179 16.2756 21.0173 17.051C21.0172 17.3413 21.018 17.6316 21.0197 17.9219C21.0206 18.1029 21.0207 18.2839 21.0206 18.465C21.0207 18.5485 21.0212 18.632 21.022 18.7156C21.0278 19.3482 20.9627 19.8534 20.5317 20.3438C20.5082 20.3722 20.4847 20.4006 20.4604 20.4299C20.2027 20.7171 19.833 20.9238 19.4536 21.0001C19.3688 21.0044 19.284 21.0062 19.1991 21.0064C19.1212 21.0067 19.1212 21.0067 19.0416 21.007C18.9845 21.007 18.9274 21.007 18.8686 21.007C18.8079 21.0072 18.7472 21.0073 18.6847 21.0075C18.5162 21.008 18.3477 21.0082 18.1791 21.0083C17.9974 21.0085 17.8157 21.0089 17.634 21.0093C17.195 21.0103 16.756 21.0107 16.3171 21.0111C16.1103 21.0113 15.9035 21.0116 15.6968 21.0118C15.0093 21.0126 14.3218 21.0133 13.6343 21.0137C13.4559 21.0138 13.2775 21.0138 13.0991 21.0139C13.0326 21.014 13.0326 21.014 12.9647 21.014C12.2467 21.0144 11.5287 21.0156 10.8106 21.0171C10.0733 21.0187 9.33586 21.0195 8.59846 21.0196C8.18453 21.0197 7.7706 21.0202 7.35666 21.0214C7.00409 21.0224 6.65152 21.0227 6.29895 21.0223C6.11917 21.0221 5.9394 21.0222 5.75962 21.0231C5.56439 21.0241 5.36918 21.0236 5.17395 21.023C5.08939 21.0237 5.08939 21.0237 5.00313 21.0245C4.4737 21.0205 4.05557 20.8819 3.65668 20.5313C3.62828 20.5078 3.59988 20.4843 3.57062 20.4601C3.28556 20.2043 3.07179 19.8316 3.00043 19.4532C2.99647 19.335 2.99499 19.2181 2.99585 19.0999C2.99595 19.0463 2.99595 19.0463 2.99605 18.9916C2.99632 18.8717 2.99691 18.7518 2.9975 18.6319C2.99774 18.546 2.99795 18.46 2.99814 18.3741C2.99857 18.1889 2.9991 18.0037 2.99968 17.8186C3.00053 17.5254 3.00062 17.2322 3.00051 16.9391C3.00049 16.8896 3.00047 16.8401 3.00045 16.7891C3.00039 16.6366 3.00032 16.4841 3.00024 16.3316C2.99993 15.7004 3.00015 15.0692 3.00283 14.438C3.00478 13.9776 3.00523 13.5172 3.00395 13.0569C3.00333 12.8134 3.00346 12.57 3.00541 12.3265C3.00722 12.0972 3.00705 11.8679 3.0054 11.6386C3.00514 11.5548 3.00559 11.4709 3.00684 11.3871C3.01493 10.8048 2.92704 10.5117 2.53168 10.0782C2.21357 9.57731 2.0078 8.93288 1.96918 8.34385C1.96622 8.30403 1.96326 8.26421 1.96021 8.22318C1.95833 8.17986 1.95646 8.13653 1.95453 8.09189C1.95278 8.05286 1.95102 8.01383 1.94922 7.97361C2.01551 7.49071 2.31636 7.07137 2.5639 6.66221C2.60391 6.59551 2.64389 6.5288 2.68384 6.46207C2.96784 5.98841 3.25457 5.51637 3.54234 5.04498C3.72414 4.74691 3.90345 4.44751 4.08038 4.14652C4.10029 4.11271 4.1202 4.0789 4.14072 4.04407C4.23746 3.87979 4.33391 3.71536 4.42984 3.5506C4.83708 2.85547 5.24696 2.26738 6.0473 2.01572C6.29549 1.96272 6.53678 1.96203 6.78924 1.96226ZM6.07857 4.59877C5.96218 4.83835 5.85648 5.0806 5.75825 5.32815C5.64389 5.60953 5.48477 5.85958 5.3212 6.11441C5.23772 6.24569 5.15815 6.37932 5.07794 6.51261C4.95305 6.71886 4.82557 6.92328 4.69616 7.12672C4.61544 7.25399 4.53573 7.38186 4.45614 7.50983C4.41774 7.571 4.37889 7.63189 4.33956 7.69246C4.08246 8.05901 4.08246 8.05901 4.04871 8.48612C4.08274 8.58439 4.08274 8.58439 4.12543 8.67197C4.15207 8.73904 4.15207 8.73904 4.17926 8.80747C4.19823 8.84397 4.21721 8.88046 4.23676 8.91807C4.25549 8.95505 4.27422 8.99203 4.29352 9.03013C4.56808 9.48824 5.02605 9.78487 5.53168 9.9376C6.03446 10.0535 6.51274 9.97514 6.96851 9.73014C7.48787 9.39571 7.82464 8.94294 7.96918 8.34385C7.99177 8.20942 8.00761 8.07427 8.02429 7.939C8.12269 7.2031 8.27789 6.47672 8.42367 5.74909C8.46252 5.55487 8.50107 5.3606 8.53964 5.16633C8.61482 4.78794 8.69033 4.40962 8.76605 4.03135C7.21641 3.77097 7.21641 3.77097 6.07857 4.59877ZM10.8286 4.03135C10.6866 4.7231 10.6866 4.7231 10.5453 5.41498C10.4878 5.6973 10.4302 5.9796 10.3721 6.26181C10.3254 6.4894 10.2789 6.71705 10.2326 6.94475C10.215 7.0315 10.1972 7.11824 10.1793 7.20495C10.1541 7.32662 10.1294 7.44837 10.1048 7.57015C10.0974 7.60578 10.0899 7.64142 10.0822 7.67814C9.9737 8.22179 10.0752 8.65802 10.3732 9.12278C10.6802 9.54942 11.0788 9.80779 11.5844 9.95518C12.1164 10.041 12.6113 9.95833 13.0727 9.66514C13.5422 9.32009 13.8716 8.88253 13.9692 8.29697C13.98 8.04311 13.9476 7.81684 13.896 7.57015C13.8883 7.53169 13.8805 7.49324 13.8725 7.45362C13.8469 7.32751 13.8209 7.20149 13.7949 7.07548C13.777 6.98767 13.7591 6.89986 13.7413 6.81204C13.6944 6.58165 13.6471 6.35134 13.5998 6.12104C13.543 5.84432 13.4866 5.5675 13.4302 5.29069C13.3446 4.87083 13.2584 4.45111 13.1723 4.03135C12.3989 4.03135 11.6254 4.03135 10.8286 4.03135ZM15.2817 4.03135C15.307 4.38836 15.3696 4.73363 15.4421 5.08384C15.462 5.18039 15.4817 5.27699 15.5013 5.37362C15.55 5.61391 15.5992 5.85411 15.6485 6.09429C15.6968 6.32973 15.7449 6.56524 15.7925 6.80082C15.7992 6.83346 15.8058 6.86611 15.8126 6.89974C15.9015 7.33878 15.9809 7.77763 16.0279 8.22348C16.0963 8.80352 16.4115 9.25172 16.8608 9.6124C17.2639 9.9086 17.7392 10.0322 18.2348 9.98447C18.8091 9.86265 19.2691 9.59791 19.6411 9.14072C19.737 8.98996 19.8146 8.84002 19.8754 8.67197C19.8888 8.64413 19.9023 8.61628 19.9161 8.58759C19.9876 8.3972 19.9843 8.28668 19.9059 8.09674C19.8068 7.91043 19.6931 7.73345 19.5795 7.55576C19.5382 7.48898 19.497 7.42212 19.4559 7.35519C19.3717 7.21855 19.2869 7.08236 19.2015 6.9465C19.0729 6.74163 18.9469 6.53527 18.8224 6.32789C18.742 6.19413 18.6605 6.06128 18.5763 5.92996C18.4139 5.67452 18.2717 5.42592 18.1602 5.14387C17.9166 4.49911 17.9166 4.49911 17.4379 4.03135C16.7642 3.82398 15.9688 3.94826 15.2817 4.03135ZM8.74554 10.9249C8.10074 11.5159 7.22979 11.9584 6.34082 11.9594C6.29076 11.9595 6.2407 11.9596 6.18912 11.9596C6.13748 11.9594 6.08585 11.9593 6.03265 11.9591C5.98156 11.9593 5.93048 11.9594 5.87784 11.9596C5.82759 11.9596 5.77735 11.9595 5.72559 11.9594C5.68049 11.9594 5.63539 11.9593 5.58893 11.9593C5.39731 11.9516 5.20665 11.9275 5.01605 11.9063C5.01605 14.2421 5.01605 16.5779 5.01605 18.9845C5.99058 18.9845 6.96511 18.9845 7.96918 18.9845C7.97093 18.7575 7.97268 18.5306 7.97449 18.2967C7.97591 18.1519 7.97737 18.0071 7.97897 17.8622C7.98151 17.6329 7.9839 17.4037 7.98542 17.1744C7.98665 16.9893 7.98855 16.8042 7.99089 16.6191C7.99166 16.5489 7.99221 16.4787 7.9925 16.4086C7.99576 15.7042 8.08419 15.1116 8.57306 14.5751C9.03733 14.14 9.58184 14.001 10.2025 14.0028C10.2455 14.0026 10.2886 14.0024 10.3329 14.0021C10.474 14.0015 10.6151 14.0015 10.7562 14.0016C10.8552 14.0014 10.9541 14.0012 11.053 14.001C11.26 14.0007 11.467 14.0007 11.674 14.0009C11.9379 14.0012 12.2019 14.0004 12.4659 13.9993C12.6702 13.9986 12.8744 13.9986 13.0787 13.9987C13.1759 13.9987 13.2732 13.9985 13.3705 13.998C14.1498 13.9947 14.8194 14.0206 15.4254 14.5727C15.9468 15.129 15.9986 15.7717 16.0042 16.4988C16.0051 16.5707 16.006 16.6426 16.007 16.7146C16.0094 16.9025 16.0112 17.0904 16.013 17.2784C16.0152 17.5046 16.0181 17.7308 16.0208 17.9571C16.025 18.2995 16.0282 18.642 16.0317 18.9845C17.0062 18.9845 17.9807 18.9845 18.9848 18.9845C18.9848 16.6487 18.9848 14.3129 18.9848 11.9063C18.8456 11.9218 18.7064 11.9373 18.5629 11.9532C17.2435 12.0295 16.1903 11.7539 15.1879 10.8751C15.1403 10.829 15.093 10.7825 15.0473 10.7345C14.8744 10.8082 14.7556 10.9169 14.6166 11.0421C13.6838 11.8457 12.5882 12.0182 11.3911 11.9532C10.5441 11.8625 9.6933 11.3996 9.10553 10.7896C8.959 10.6509 8.85753 10.8176 8.74554 10.9249ZM10.0317 16.0313C10.0317 17.0059 10.0317 17.9804 10.0317 18.9845C11.3311 18.9845 12.6304 18.9845 13.9692 18.9845C13.9692 18.0099 13.9692 17.0354 13.9692 16.0313C12.6698 16.0313 11.3704 16.0313 10.0317 16.0313Z" fill="currentColor"/>
</svg>
