<svg width="20" height="20" viewBox="0 0 20 20" fill="none" xmlns="http://www.w3.org/2000/svg">
<path d="M10.0001 18.9584C5.05841 18.9584 1.04175 14.9417 1.04175 10.0001C1.04175 5.05841 5.05841 1.04175 10.0001 1.04175C14.9417 1.04175 18.9584 5.05841 18.9584 10.0001C18.9584 14.9417 14.9417 18.9584 10.0001 18.9584ZM10.0001 2.29175C5.75008 2.29175 2.29175 5.75008 2.29175 10.0001C2.29175 14.2501 5.75008 17.7084 10.0001 17.7084C14.2501 17.7084 17.7084 14.2501 17.7084 10.0001C17.7084 5.75008 14.2501 2.29175 10.0001 2.29175Z" fill="#237B9F"/>
<path d="M8.8167 12.9834C8.65003 12.9834 8.4917 12.9167 8.37503 12.8001L6.0167 10.4417C5.77503 10.2001 5.77503 9.80008 6.0167 9.55841C6.25837 9.31675 6.65837 9.31675 6.90003 9.55841L8.8167 11.4751L13.1 7.19175C13.3417 6.95008 13.7417 6.95008 13.9834 7.19175C14.225 7.43341 14.225 7.83341 13.9834 8.07508L9.25837 12.8001C9.1417 12.9167 8.98337 12.9834 8.8167 12.9834Z" fill="#237B9F"/>
</svg>
