<svg width="16" height="17" viewBox="0 0 16 17" fill="none" xmlns="http://www.w3.org/2000/svg">
<path d="M9.14286 4.40153V10.8496C9.14286 11.1527 9.02245 11.4434 8.80812 11.6578C8.59379 11.8721 8.30311 11.9925 8 11.9925C7.6969 11.9925 7.40621 11.8721 7.19188 11.6578C6.97755 11.4434 6.85714 11.1527 6.85714 10.8496V4.40153L5.576 5.68383C5.3614 5.89828 5.07041 6.0187 4.76702 6.01859C4.46364 6.01849 4.17273 5.89786 3.95829 5.68326C3.74384 5.46866 3.62342 5.17766 3.62353 4.87428C3.62364 4.57089 3.74426 4.27997 3.95886 4.06552L7.192 0.834618C7.40632 0.620362 7.69696 0.5 8 0.5C8.30305 0.5 8.59368 0.620362 8.808 0.834618L12.0411 4.06667C12.1473 4.17293 12.2315 4.29906 12.289 4.43787C12.3464 4.57667 12.376 4.72543 12.3759 4.87566C12.3758 5.02588 12.3462 5.17462 12.2887 5.31338C12.2311 5.45215 12.1468 5.57822 12.0406 5.68441C11.9343 5.79059 11.8082 5.87481 11.6694 5.93224C11.5306 5.98968 11.3818 6.01922 11.2316 6.01917C11.0814 6.01911 10.9326 5.98947 10.7939 5.93194C10.6551 5.8744 10.529 5.79009 10.4229 5.68383L9.14286 4.40153ZM1.14286 14.2143H14.8571C15.1602 14.2143 15.4509 14.3347 15.6653 14.549C15.8796 14.7633 16 15.054 16 15.3571C16 15.6602 15.8796 15.9509 15.6653 16.1653C15.4509 16.3796 15.1602 16.5 14.8571 16.5H1.14286C0.839753 16.5 0.549062 16.3796 0.334735 16.1653C0.120408 15.9509 0 15.6602 0 15.3571C0 15.054 0.120408 14.7633 0.334735 14.549C0.549062 14.3347 0.839753 14.2143 1.14286 14.2143Z" fill="currentColor"/>
</svg>
