<svg width="24" height="24" viewBox="0 0 24 24" fill="none" xmlns="http://www.w3.org/2000/svg">
<path d="M9.93398 12.9659C10.1288 12.9662 10.3236 12.9659 10.5183 12.9657C10.8452 12.9654 11.172 12.9658 11.4989 12.9664C11.8745 12.9672 12.2501 12.967 12.6257 12.9662C12.9506 12.9655 13.2756 12.9655 13.6005 12.9658C13.7935 12.966 13.9865 12.9661 14.1795 12.9656C16.0189 12.9617 16.0189 12.9617 16.831 13.2484C16.8823 13.2661 16.8823 13.2661 16.9346 13.2842C17.5509 13.5066 18.106 13.8324 18.6093 14.2504C18.675 14.3037 18.675 14.3037 18.7419 14.3581C19.4467 14.9605 19.9868 15.8441 20.0707 16.7798C20.132 17.7068 19.859 18.5692 19.2455 19.2763C17.6817 20.9684 15.6375 21.7718 13.3593 21.9848C13.3067 21.99 13.254 21.9953 13.1997 22.0007C10.6529 22.2139 7.69832 21.8557 5.67184 20.1567C5.4794 19.9899 5.29365 19.8167 5.10934 19.641C5.07399 19.6082 5.03864 19.5753 5.00222 19.5414C4.35375 18.9217 3.95313 18.0822 3.91529 17.184C3.9024 16.1544 4.39084 15.2307 5.08847 14.5C6.45176 13.1994 8.12596 12.9615 9.93398 12.9659ZM6.46872 16.0317C6.15417 16.407 5.96816 16.7572 5.98422 17.2542C6.03231 17.672 6.32543 17.9459 6.60934 18.2348C6.643 18.2696 6.67666 18.3044 6.71133 18.3402C7.54122 19.1429 8.67955 19.5616 9.79098 19.7904C9.84307 19.8013 9.84307 19.8013 9.8962 19.8124C10.5856 19.9463 11.2787 19.9871 11.9795 19.9838C12.018 19.9837 12.0566 19.9836 12.0963 19.9835C13.9678 19.9757 15.8649 19.6126 17.2968 18.3285C17.335 18.2954 17.3731 18.2622 17.4124 18.228C17.7451 17.9208 18.005 17.5506 18.0351 17.0863C18.0089 16.6535 17.754 16.2273 17.4375 15.9379C16.554 15.1837 15.5703 14.9931 14.4408 14.9936C14.3825 14.9934 14.3242 14.9933 14.2641 14.9931C14.1057 14.9927 13.9472 14.9926 13.7888 14.9926C13.6893 14.9925 13.5898 14.9924 13.4904 14.9923C13.1421 14.9919 12.7939 14.9917 12.4456 14.9917C12.1231 14.9917 11.8006 14.9912 11.478 14.9905C11.1994 14.9899 10.9208 14.9896 10.6421 14.9897C10.4765 14.9897 10.3108 14.9896 10.1452 14.9891C8.78438 14.9852 7.5083 15.0276 6.46872 16.0317Z" fill="currentColor"/>
<path d="M15.2805 3.15825C16.2266 3.97934 16.9068 5.15801 17.0156 6.42156C17.1102 7.87761 16.7554 9.19426 15.7969 10.3122C15.7633 10.3551 15.7633 10.3551 15.729 10.399C15.0219 11.2864 13.812 11.8446 12.7031 11.9997C11.6463 12.0763 10.647 11.9903 9.70314 11.4841C9.65861 11.4619 9.61408 11.4397 9.56819 11.4169C9.25305 11.2551 8.98796 11.0568 8.71877 10.8278C8.68759 10.8035 8.65641 10.7791 8.62429 10.754C7.68131 9.99312 7.11552 8.72916 6.98439 7.54656C6.88544 6.15227 7.22362 4.84096 8.12697 3.75847C9.95249 1.65521 13.1322 1.36117 15.2805 3.15825ZM9.64455 5.13835C9.10558 5.84811 8.98264 6.62959 9.04689 7.49968C9.1377 8.15642 9.47915 8.67957 9.93752 9.14031C9.96525 9.16967 9.99299 9.19904 10.0216 9.2293C10.5386 9.73374 11.2922 9.97729 12 10.0016C12.8373 9.97284 13.5784 9.65128 14.1563 9.04656C14.2007 9.00351 14.2007 9.00351 14.246 8.95958C14.8024 8.38482 14.977 7.62674 14.9729 6.8529C14.9524 6.06337 14.607 5.39237 14.0625 4.82781C13.3722 4.22052 12.5933 3.96719 11.6829 4.02102C10.8733 4.0976 10.1694 4.52955 9.64455 5.13835Z" fill="currentColor"/>
</svg>
