<svg width="28" height="28" viewBox="0 0 28 28" fill="none" xmlns="http://www.w3.org/2000/svg">
<path d="M17.3253 4.60839V9.04172H15.5753V4.60839C15.5753 4.29339 15.2953 4.14172 15.1087 4.14172C15.0503 4.14172 14.992 4.15339 14.9337 4.17672L5.68199 7.66506C5.06366 7.89839 4.66699 8.48172 4.66699 9.14672V9.92839C3.60533 10.7217 2.91699 11.9934 2.91699 13.4284V9.14672C2.91699 7.75839 3.76866 6.52172 5.06366 6.03172L14.327 2.53172C14.5837 2.43839 14.852 2.39172 15.1087 2.39172C16.2753 2.39172 17.3253 3.33672 17.3253 4.60839Z" fill="currentColor"/>
<path d="M25.0835 16.9167V18.0834C25.0835 18.3984 24.8385 18.655 24.5118 18.6667H22.8085C22.1901 18.6667 21.6301 18.2117 21.5835 17.605C21.5485 17.2434 21.6885 16.905 21.9218 16.6717C22.1318 16.45 22.4235 16.3334 22.7385 16.3334H24.5001C24.8385 16.345 25.0835 16.6017 25.0835 16.9167Z" fill="currentColor"/>
<path d="M22.727 15.1083H23.917C24.5587 15.1083 25.0837 14.5833 25.0837 13.9416V13.4283C25.0837 11.0133 23.112 9.04163 20.697 9.04163H7.30366C6.31199 9.04163 5.40199 9.36829 4.66699 9.92829C3.60533 10.7216 2.91699 11.9933 2.91699 13.4283V21.28C2.91699 23.695 4.88866 25.6666 7.30366 25.6666H20.697C23.112 25.6666 25.0837 23.695 25.0837 21.28V21.0583C25.0837 20.4166 24.5587 19.8916 23.917 19.8916H22.902C21.782 19.8916 20.7087 19.2033 20.417 18.1183C20.172 17.2316 20.4637 16.38 21.047 15.8083C21.4787 15.365 22.0737 15.1083 22.727 15.1083ZM16.3337 14.875H8.16699C7.68866 14.875 7.29199 14.4783 7.29199 14C7.29199 13.5216 7.68866 13.125 8.16699 13.125H16.3337C16.812 13.125 17.2087 13.5216 17.2087 14C17.2087 14.4783 16.812 14.875 16.3337 14.875Z" fill="currentColor"/>
</svg>
